<?xml version="1.0" encoding="utf-8"?>
<!-- Generator: Adobe Illustrator 27.5.0, SVG Export Plug-In . SVG Version: 6.00 Build 0)  -->
<svg version="1.1" xmlns="http://www.w3.org/2000/svg" xmlns:xlink="http://www.w3.org/1999/xlink" x="0px" y="0px"
	 viewBox="0 0 263.733 371.321" style="enable-background:new 0 0 263.733 371.321;" xml:space="preserve">
<g id="Guides_For_Artboard">
</g>
<g id="Layer_1">
	<g>
		<g>
			<path style="fill:#4B1E0A;" d="M156.313,215.202c-0.011-0.02-0.044-0.002-0.035,0.018c0.937,1.834,2.047,3.543,3.357,5.133
				c0.016,0.02,0.052-0.01,0.036-0.029C158.374,218.728,157.254,217.031,156.313,215.202z"/>
			<path style="fill:#4B1E0A;" d="M217.491,256.574c0.005-0.024-0.032-0.02-0.036-0.001c-0.069,0.326-0.139,0.653-0.208,0.979
				c-0.006,0.028,0.038,0.024,0.044,0C217.357,257.227,217.424,256.9,217.491,256.574z"/>
			<g>
				<path style="fill:#4B1E0A;" d="M243.989,261.989c-0.28-0.438-0.729-0.785-1.203-0.989c-1.253-0.54-2.293-1.157-3.351-2.025
					c-4.242-3.481-7.437-8.41-11.035-12.53c-3.585-4.103-7.134-8.213-10.64-12.382c-7.191-8.551-12.492-18.534-18.688-27.806
					c-2.025-3.031-4.746-5.955-8.686-5.36c-1.742,0.263-2.941,1.639-3.443,3.247c-1.45,0.162-2.854,0.563-4.289,0.846
					c-0.205,0.041-1.16,0.252-1.9,0.277c-0.774-0.58-1.52-1.127-2.415-1.57c-1.234-0.612-2.624-0.973-3.924-1.418
					c-0.365-0.126-1.62-0.656-2.317-0.791c-1.064-2.725-4.475-2.143-6.698-1.501c-1.204,0.347-2.521,0.482-3.751,0.719
					c-1.107,0.214-2.172-0.175-3.25,0c-1.018,0.165-1.748,0.59-2.354,1.435c-0.052,0.072-0.091,0.15-0.137,0.225
					c-0.021,0.003-0.043,0-0.057,0.018c-0.069,0.094-0.14,0.188-0.21,0.283c-0.015,0.02,0.005,0.045,0.026,0.028
					c0.03-0.024,0.05-0.037,0.075-0.056c-0.064,0.125-0.114,0.253-0.164,0.381c-0.14,0.166-0.322,0.376-0.548,0.629
					c-0.485,0.525-1.001,1.02-1.549,1.479c-0.606,0.532-1.19,1.087-1.777,1.639c-0.471-0.082-1.028-0.075-1.211-0.084
					c-0.385-0.018-0.956-0.07-1.491-0.021c0.128-0.778-0.135-1.498-1.249-2.079c-2.769-1.444-6.855,0.973-9.026,2.426
					c-3.404,2.278-5.856,5.815-8.425,8.932c-3.25,3.942-6.912,7.163-10.814,10.39c-0.263-0.664-0.641-1.241-1.204-1.645
					c-0.35-2.548-1.233-4.932-2.407-7.297c-1.893-3.809-4.614-7.223-7.078-10.67c-0.932-1.305-1.857-2.613-2.774-3.927
					c-1.304-2.305-2.582-4.62-3.988-6.862c-2.802-6.326-13.981,0.842-17.239,3.126c-3.945,2.767-7.34,6.445-10.257,10.252
					c-2.056,2.684-4.863,6.508-3.294,10.018c0.074,0.167,0.163,0.327,0.263,0.48c0.912,2.52,2.648,4.767,4.184,6.912
					c2.253,3.148,4.688,6.206,7.1,9.234c4.826,6.061,10.101,11.69,15.871,16.861c5.243,4.697,11.231,8.911,18.581,7.896
					c3.42-0.473,6.706-2.057,9.797-3.508c1.852-0.871,4.228-2.023,5.697-3.703c0.01,0.234,0.013,0.468,0.025,0.702
					c0.254,4.788,0.807,9.637,1.65,14.441c-0.439,2.548-0.813,5.106-1.172,7.671c-0.434,3.093-1.849,7.001-1.033,10.079
					c0.715,2.695,2.962,5.825,4.837,7.83c1.97,2.106,4.487,3.438,7.176,4.371c0.311,0.639,0.766,1.53,0.839,1.749
					c0.28,0.832,0.682,1.605,1.094,2.379c0.552,1.036,1.256,1.997,1.97,2.95c0.07,2.112,0.273,4.16,0.933,6.201
					c0.77,2.382,2.295,4.432,3.688,6.475c2.301,3.374,4.051,9.603,8.515,10.575c3.41,0.742,6.864-1.759,8.604-4.477
					c1.159-1.811,0.054-4.66-0.188-6.586c-0.374-2.978-0.756-5.935-1.346-8.879c-0.03-0.152-0.114-0.225-0.217-0.248
					c-0.242-4.747-0.554-9.477-0.021-14.267c0.35-3.142,0.851-6.514,2.23-9.385c0.749-1.56,2.185-3.011,3.861-4.075
					c2.896-0.169,5.661,5.262,6.796,7.5c0.437,0.861,3.889,7.299,2.339,7.871c-0.934,0.346-1.217,1.473-0.792,2.291
					c0.291,0.562,0.617,1.113,0.954,1.662c-2.291,4.983-1.01,10.404,0.108,15.549c0.424,1.951,1.116,3.714,2.572,5.115
					c1.153,1.11,3.705,1.924,5.227,1.195c1.801-0.863,2.523-2.417,3.082-4.27c0.88-2.918,1.395-5.965,2.186-8.91
					c0.849-3.158,1.821-6.283,2.617-9.456c0.834-3.326,0.91-6.815,1.521-10.188c0.003-0.018,0-0.029,0.001-0.045
					c2.543-1.223,4.966-2.701,7.102-4.496c3.42-2.873,6.095-7.291,5.602-11.869c-0.261-2.431-1.562-4.583-2.629-6.722
					c-1.188-2.379-1.977-4.803-3.781-6.793c0.222-4.402,0.016-8.841-0.434-13.227c3.458,8.959,8.795,16.818,15.352,24.014
					c1.739,1.907,4.038,3.27,6.174,4.677c1.507,0.994,2.862,2.195,4.787,1.904c2.06-0.313,3.938-0.974,5.651-2.167
					c0.58-0.403,1.023-0.944,1.396-1.548c2.025-1.616,3.227-3.619,3.718-6.482C243.995,265.086,244.945,263.48,243.989,261.989z"/>
				<g>
					<path style="fill:#C3E0FF;" d="M173.185,202.88c2.54,1.199,4.958,2.309,7.149,4.092c1.849,1.506,4.185,2.219,4.9,4.706
						c0.866,3.008,0.566,6.771,0.873,9.898c0.553,5.62,1.278,11.222,1.763,16.849c0.225,2.614,0.199,5.235,0.026,7.852
						c-0.125,1.893-0.195,4.175-0.477,6.244c-0.261-1.688-0.525-3.375-0.815-5.063c-2.447-14.23-6.761-28.535-13.472-41.387
						c-0.148-1.238-0.377-2.454-0.699-3.572C172.674,202.637,172.931,202.761,173.185,202.88z"/>
					<path style="fill:#FED1B4;" d="M156.896,203.136c0.629-1.605,2.736-0.716,3.981-0.882c1.526-0.204,3.031-0.57,4.538-0.887
						c1.374-0.288,2.426-0.716,3.864-0.706c2.298,0.016,2.416,2.49,2.618,4.077c0.297,2.336,0.563,4.593,0.436,6.952
						c-0.32,5.953-5.862,12.282-11.76,7.746c-2.399-1.846-2.964-5.025-3.465-7.816c-0.3-1.668-0.536-3.341-0.794-5.011
						C156.365,205.419,156.468,204.224,156.896,203.136z"/>
					<path style="fill:#00A79D;" d="M155.787,209.974c0.09,5.299,0.819,10.606,6.458,12.533c6.821,2.331,10.756-5.536,11.063-11.012
						c0.064-1.123,0.064-2.357-0.011-3.613c4.602,12.515,8.992,25.24,11.333,38.375c0.763,4.281,1.448,8.576,2.045,12.882
						c-2.387,2.458-4.64,4.207-7.843,5.643c-3.232,1.45-6.52,2.571-10.055,2.947c-2.774,0.296-5.73-0.095-8.508-0.355
						c-2.515-0.236-5.848-0.889-6.554-3.725c-0.005-0.022-0.025-0.016-0.042-0.018c-0.609-4.94-0.963-9.909-1.224-14.891
						c-0.409-7.809-0.223-15.657,0.767-23.418c0.461-3.621,1.182-7.197,1.826-10.788
						C155.294,213.134,155.652,211.54,155.787,209.974z"/>
					<path style="fill:#C3E0FF;" d="M155.345,203.854c-0.16,0.853-0.125,1.761-0.031,2.657c0.132,1.887-0.748,3.621-1.029,5.455
						c-0.259,1.688-0.68,3.359-1.047,5.027c-0.746,3.396-1.317,6.852-1.696,10.309c-0.661,6.033-0.839,12.087-0.684,18.145
						c-0.64-2.566-1.297-5.129-1.843-7.719c-0.976-4.623-1.528-9.322-2.301-13.98c-0.379-2.289-0.821-4.535-0.555-6.864
						c0.271-2.366,1.865-4.357,3.275-6.173C151.195,208.444,153.917,206.427,155.345,203.854z"/>
					<path style="fill:#85A7C6;" d="M84.073,200.817c3.331-2.637,13.236-9.411,16.878-4.375c0.079,3.24,0.55,6.327-0.309,9.599
						c-1.049,3.999-4.319,7.554-7.308,10.249c-5.505,4.965-12.773,7.704-19.634,3.68C66.909,215.985,80.722,203.47,84.073,200.817z"
						/>
					<path style="fill:#C3E0FF;" d="M143.62,296.566c-2.608-1.016-4.73-2.611-6.434-4.816c-1.906-2.469-4.232-5.505-3.801-8.724
						c0.57-4.257,0.931-8.54,1.315-12.819c0.764,4.012,1.765,7.973,2.982,11.84c-0.135-1.451-0.225-2.91-0.333-4.363
						c-1.688-7.813-2.587-15.78-3.122-23.778c-0.39-5.821,0.188-11.675,0.963-17.444c0.378-2.81,0.802-5.731,1.837-8.382
						c0.774-1.982,1.773-3.789,2.178-5.898c0.014-0.072-0.08-0.065-0.096-0.008c-0.691,2.568-2.263,4.713-3.315,7.129
						c-1.081,2.48-1.484,5.345-1.923,7.992c-0.11,0.667-0.198,1.338-0.295,2.007c-0.518-4.095-0.974-8.601,0.355-12.372
						c0.012-0.031-0.033-0.033-0.045-0.01c-1.173,2.412-1.461,4.968-1.599,7.62c-0.129,2.491-0.23,5.091,0.947,7.353
						c-0.39,3.334-0.604,6.684-0.547,10.039c-1.857,2.16-5.013,3.469-7.513,4.604c-3.293,1.495-6.646,2.799-10.303,2.917
						c-6.878,0.223-13.001-5.733-17.671-10.105c-4.985-4.667-9.531-9.704-13.808-15.026c-2.057-2.561-4.127-5.107-6.254-7.61
						c-1.568-1.845-3.227-3.692-4.516-5.752c1.965,1.485,5.205,2.064,7.18,2.295c4.24,0.495,8.186-1.614,11.545-3.942
						c3.763-2.607,6.747-6.092,9.095-9.99c1.008-1.674,1.614-3.826,1.724-5.766c0.086-1.527-0.116-2.961-0.38-4.389
						c0.001-0.029,0-0.061,0.001-0.09c0.012-0.379,0.07-0.758,0.146-1.133c0.361,0.332,0.626,0.818,0.942,1.234
						c0.925,1.994,2.081,3.933,3.364,5.662c1.956,3.22,4.002,6.386,6.077,9.577c2.047,3.147,4.173,6.775,4.678,10.558
						c0.551,4.125-0.824,7.186-2.206,10.959c-0.113,0.309,0.257,0.421,0.4,0.151c1.392-2.609,2.837-4.92,3.184-7.771
						c0.284,1.396,0.455,2.798,0.466,4.379c0.022,3.25-0.055,6.503-0.017,9.751c0.001,0.123,0.159,0.061,0.168-0.035
						c0.334-3.551,0.913-7.003,1.007-10.58c0.03-1.148,0.104-2.698-0.13-4.113c5.438-3.44,9.641-8.316,13.659-13.271
						c2.311-2.852,4.734-5.377,7.902-7.277c1.345-0.807,3.061-1.074,4.618-1.086c2.122-0.016,1.393,2.375,1.185,3.584
						c-0.04,0.229,0.243,0.252,0.331,0.07c0.313-0.648,0.746-1.323,1.062-1.984c0.082-0.031,0.157-0.063,0.218-0.089
						c0.259-0.114,1.643-0.556,2.607-0.663c-0.129,0.123-0.263,0.238-0.392,0.361c-1.516,1.441-2.898,3.01-4.151,4.683
						c-2.26,3.017-2.642,6.212-2.053,9.88c1.416,8.822,3.49,17.682,6.094,26.262c0.025,0.596,0.048,1.193,0.079,1.79
						c0.687,13.188,3.21,25.931,7.125,38.446c0.345,1.632,0.658,3.268,1.132,4.87c0.259,0.875,0.643,1.686,1.099,2.471
						c0.369,0.634,2.132,1.659,0.365,2.147C155.496,299.357,148.643,298.523,143.62,296.566z"/>
					<path style="fill:#1C75BC;" d="M198.899,295.79c-0.396,2.413-1.159,4.741-1.861,7.079c-1.356,4.513-2.793,9.052-3.731,13.675
						c-0.21,1.03-0.499,2.017-0.945,2.971c-1.076,2.296-3.881,1.278-5.242,0.297c-1.568-1.13-2-3.405-2.393-5.163
						c-0.52-2.324-0.993-4.678-1.302-7.037c-0.148-1.137-0.224-2.276-0.253-3.421c-0.012-0.411-0.033-3.163,0.344-3.804
						c1.019,1.654,2.197,3.254,3.331,4.816c-0.45-1.075-0.839-2.183-1.121-3.312c-0.229-0.35-0.46-0.698-0.692-1.049
						c-0.719-1.09-2.376-2.682-0.732-3.746c2.064-1.338-0.546-5.287-1.224-6.857c-1.104-2.559-4.755-9.266-8.179-9.651
						c0.361-0.198,0.728-0.384,1.101-0.542c1.199-0.383,2.435-0.648,3.663-0.793c0.318-0.039,0.466-0.639,0.073-0.655
						c-1.648-0.069-3.191,0.439-4.634,1.193c-2.889,1.082-5.71,2.84-6.745,5.368c-0.028,0.068,0.046,0.103,0.093,0.053
						c0.078-0.088,0.157-0.175,0.235-0.262c0.031-0.033-0.011-0.086-0.047-0.053c-0.793,0.716,1.482-1.66,1.383-1.615
						c0.461-0.412,0.979-0.772,1.509-1.105c-2.307,1.898-3.242,4.831-3.994,7.614c-0.462,1.712-0.813,3.496-1.07,5.321
						c-0.017,4.031-0.332,8.105,0.134,12.111c0.489,4.217,1.49,8.342,2.184,12.524c0.512,1.052,0.688,2.165,0.29,3.291v0.003h-0.001
						c-0.014,0.04-0.022,0.08-0.038,0.12c-0.093,0.236-0.344,0.352-0.541,0.323c-0.491,1.508-2.008,2.543-3.399,3.25
						c-2.14,1.086-4.463,0.74-5.968-1.172c-1.115-1.416-1.923-3.091-2.811-4.651c-0.993-1.747-2.157-3.337-3.315-4.975
						c-2.192-3.105-3.821-6.172-4.547-9.831c0.387,0.515,0.77,1.029,1.127,1.554c1.161,1.705,2.353,3.39,3.526,5.086
						c0.666,0.962,1.162,1.955,2.188,2.441c-1.673-2.339-3.2-4.815-4.623-7.28c-0.459-0.795-1.811-2.711-2.392-4.401
						c-0.401-0.503-0.803-1.005-1.193-1.516c-0.744-0.977-1.324-2.049-1.944-3.096c2.804,0.863,5.647,0.936,8.542,1.172
						c1.661,0.134,3.369-0.07,5.02-0.236c0.971-0.097,2.718-0.157,3.497-0.896c1.231-1.167,1.358-2.424-0.078-3.328
						c-0.888-0.559-1.521-1.541-2.013-2.674c-1.882-6.879-3.707-13.77-5.087-20.77c-0.492-2.493-0.884-4.998-1.213-7.51
						c1.537,4.869,9.826,4.939,13.939,4.878c4.292-0.063,8.395-1.682,12.235-3.455c2.563-1.184,5.471-3.168,6.84-5.797
						c0.462,3.434,0.876,6.875,1.201,10.328c0.354,3.763,0.655,7.476,0.774,11.257c0.113,3.592,0.338,7.546-0.537,11.056
						c-0.047,0.189,0.218,0.218,0.279,0.06c0.078-0.202,0.141-0.41,0.207-0.615c0.36,2.052,5.808-0.576,6.725-0.885
						c1.556-0.523,3.105-1.133,4.618-1.826C199.439,291.633,199.235,293.735,198.899,295.79z"/>
					<path style="fill:#C3E0FF;" d="M241.754,268.807c0.038-0.151,0.039-0.283,0.02-0.4c-1.041,2.773-3.345,5.372-5.863,6.272
						c-1.22,0.731-2.609,1.195-3.703,0.697c-0.426-0.194-1.656-0.838-2.316-1.537c-1.615-1.073-3.228-2.156-4.771-3.33
						c-2.073-1.577-3.663-3.7-5.323-5.685c-2.905-3.471-5.582-7.063-8.017-10.88c-1.141-1.789-2.185-3.645-3.184-5.517
						c-0.804-1.504-1.472-3.191-2.232-4.784c-0.069-0.564-0.14-1.13-0.216-1.691c-0.725-5.354-1.597-10.787-3.305-15.925
						c-0.386-1.16-0.805-2.373-1.275-3.582c-0.002-0.703-0.013-1.406-0.049-2.097c-0.037-0.706-0.155-1.397-0.3-2.087
						c-0.061-0.293-0.606-1.777-0.561-1.785c0.051-0.01,0.07-0.091,0.011-0.102c-0.07-0.018-0.141-0.036-0.21-0.055
						c-0.087-0.027-0.18,0.066-0.154,0.154c0.39,1.348,0.536,2.723,0.478,4.106c-0.974-2.143-2.182-4.169-3.826-5.716
						c-0.056-0.053-0.153,0.05-0.109,0.108c1.703,2.29,2.817,5.179,3.696,8.067c-0.011,0.451,0.064,0.886,0.356,1.201
						c0.321,1.129,0.614,2.244,0.897,3.311c1.355,5.105,2.098,10.412,2.79,15.642c0.882,6.668,1.103,13.364,0.694,20.04
						c0.313,2.707,0.258,5.432-0.028,8.139c1.006-3.677,1.566-7.444,1.797-11.243c1.363,3.316,2.399,6.753,3.815,10.059
						c1.9,4.435,0.476,8.553-2.583,11.994c-2.328,2.621-5.525,4.391-8.646,5.887c-1.17,0.561-9.289,4.262-9.677,3.098
						c-0.068-0.207-0.193-0.297-0.334-0.32c-0.123-0.369-0.194-0.819-0.234-1.302c0.253-1.69,0.337-3.421,0.482-5.099
						c0.35-4.049,0.282-8.195-0.072-12.239c-0.553-6.316-1.301-12.585-2.247-18.84c0.261-1.777,0.235-3.624,0.444-5.396
						c0.309-2.604,0.42-5.234,0.421-7.855c0.001-6.255-0.629-12.555-1.066-18.789c-0.222-3.148-0.175-6.373-0.562-9.502
						c-0.2-1.625-0.871-2.807-2.075-3.883c-0.994-0.888-2.286-1.43-3.363-2.227c0.022,0.002,0.053,0.004,0.071,0.006
						c1.757,0.174,3.68-0.102,5.331-0.792c-0.111,0.674-0.106,1.362,0.032,2.009c0.06,0.275,0.448,0.045,0.404-0.19
						c-0.01-0.051-0.02-0.101-0.029-0.153c-0.009-0.048-0.033-0.075-0.064-0.091c0.273-0.527,0.646-1.401,0.755-1.67
						c0.539-1.135,1.214-1.935,2.551-2.275c2.314-0.59,4.393,1.376,5.764,2.951c2.748,3.158,4.932,7.063,7.262,10.539
						c2.359,3.52,4.44,7.205,6.749,10.755c2.404,3.696,5.336,6.966,8.05,10.424c5.271,6.715,11.112,13.062,16.612,19.593
						c1.07,1.272,2.233,2.43,3.487,3.518c1.31,1.137,2.615,1.553,4.065,2.41C243.426,263.358,242.227,267.454,241.754,268.807z"/>
				</g>
				<g>
					<path style="fill:#C3E0FF;" d="M155.345,203.854c-1.429,2.573-4.15,4.591-5.91,6.857c-0.278,0.358-0.563,0.726-0.845,1.101
						c1.778-0.696,0.806,5.86,1.188,12.762c0.358,6.458-0.869,8.041-2.285,4.211c0.446,2.992,0.896,5.984,1.521,8.944
						c0.546,2.59,1.203,5.152,1.843,7.719c-0.155-6.058,0.022-12.111,0.684-18.145c0.379-3.457,0.95-6.912,1.696-10.309
						c0.367-1.668,0.788-3.339,1.047-5.027c0.281-1.834,1.161-3.568,1.029-5.455C155.22,205.614,155.185,204.706,155.345,203.854z"
						/>
				</g>
				<g>
					<path style="fill:#C3E0FF;" d="M184.264,230.141c-1.834-6-2.166-13.333-4.333-17.166c-2.167-3.833-0.167-6,3.5-3.834
						c0.001,0.001,0.002,0.001,0.003,0.002c-0.954-0.762-2.095-1.352-3.1-2.171c-2.191-1.783-4.608-2.893-7.149-4.092
						c-0.254-0.119-0.511-0.243-0.753-0.381c0.322,1.118,0.551,2.334,0.699,3.572c6.711,12.852,11.025,27.156,13.472,41.387
						c0.29,1.688,0.555,3.375,0.815,5.063c0.282-2.069,0.352-4.351,0.477-6.244c0.173-2.616,0.198-5.237-0.026-7.852
						c-0.314-3.653-0.73-7.297-1.135-10.94C186.594,232.408,185.886,235.448,184.264,230.141z"/>
				</g>
			</g>
			<g>
				<path style="fill:#4B1E0A;" d="M172.571,337.383c-0.429-2.832-0.78-6.193-1.715-9.2c-0.075-0.235-0.149-0.472-0.22-0.709
					c-0.365-1.042-0.812-2.03-1.371-2.923c0.018-0.072,0.018-0.149,0.031-0.223c-0.167-0.19-0.359-0.334-0.58-0.367
					c-0.132-0.021-0.261,0.023-0.386,0.1c0,0.02-0.01,0.037-0.006,0.056c0.014,0.058,0.028,0.114,0.044,0.171
					c-0.977,1.201-1.719,2.18-3.325,2.85c-1.155,0.483-2.477,0.566-3.69,0.234c-0.135-0.036-0.43-0.063-0.759-0.094
					c-0.537-0.682-1.235-1.412-1.85-0.464c-0.298,0.46-0.375,1.011-0.471,1.539c-0.034,0.188-0.09,0.374-0.139,0.56
					c-1.691,3.431-3.821,6.646-5.861,9.874c-2.282,3.609-5.463,7.408-6.39,11.653c-0.736,3.375,1.27,6.861,3.889,8.816
					c3.024,2.258,6.857,2.512,10.483,2.096c3.574-0.41,7.325-1.775,9.9-4.344c2.304-2.295,3.058-5.771,3.283-8.893
					C173.698,344.544,173.103,340.905,172.571,337.383z"/>
				<path style="fill:#A97C50;" d="M158.18,330.072c0.049-0.072,0.091-0.147,0.141-0.219c0.336-0.488,0.785-0.976,0.979-1.545
					c0.063-0.184,0.112-0.367,0.167-0.553c0.015-0.056,0.036-0.109,0.053-0.164c0.46,0.379,1.171,0.639,1.913,0.801
					c-1.776,0.904-3.244,2.735-2.169,4.427c-0.048-1.138,0.399-2.333,1.296-2.966c1.25-0.885,3.351-1.082,4.836-0.959
					c0.236,0.02,0.454,0.09,0.663,0.179c0.481,0.126,0.813,0.409,1.067,0.79c0.26,0.287,0.486,0.609,0.685,0.938
					c0.06-0.291,0.163-1.217,0.016-1.811c-0.159-0.645-0.707-0.982-1.277-1.203c-0.046-0.018-0.096-0.026-0.143-0.042
					c0.73-0.395,1.413-0.911,1.941-1.512c0.016-0.039,0.031-0.079,0.048-0.118c0.035-0.084,0.125-0.174,0.23-0.236
					c0.038-0.051,0.084-0.098,0.119-0.15c0.008,0.029,0.016,0.059,0.023,0.088c0.148-0.041,0.288-0.008,0.328,0.186
					c0.148,0.749,0.259,1.502,0.363,2.257c0.615,2.134,1.227,4.266,1.602,6.501c0.55,3.258,1.011,6.547,1.117,9.853
					c0.087,2.71-0.136,5.478-1.082,8.024c-3.185,3.297-8.028,4.525-12.543,4.785c-2.77,0.158-5.655-0.664-7.897-2.297
					c-0.963-0.701-1.775-1.656-2.534-2.56c-0.569-0.678-0.857-1.389-0.96-2.131c0.314-1.779,1.34-3.467,2.293-4.951
					C152.533,340.694,156.122,335.543,158.18,330.072z"/>
				<path style="fill:#603913;" d="M160.909,359.622c-3.755,0.685-7.489,0.172-10.635-2.045c-1.561-1.102-2.513-2.836-3.013-4.634
					c-0.174-0.624-0.219-1.244-0.176-1.855c0.234,0.951,0.809,1.832,1.737,2.823c2.194,2.338,4.81,3.582,7.996,3.922
					c3.12,0.334,6.508-0.479,9.419-1.527c1.402-0.506,3.043-1.301,4.314-2.391C168.749,357.56,164.648,358.94,160.909,359.622z"/>
			</g>
			<g>
				<path style="fill:#4B1E0A;" d="M180.046,339.703c0.203,2.818,0.884,5.956,2.964,8.029c2.325,2.318,5.712,3.551,8.939,3.922
					c3.273,0.376,6.734,0.146,9.465-1.893c2.365-1.766,4.176-4.912,3.511-7.959c-0.837-3.833-3.708-7.264-5.769-10.522
					c-1.842-2.915-3.766-5.817-5.292-8.915c-0.044-0.168-0.095-0.335-0.126-0.506c-0.086-0.477-0.155-0.975-0.425-1.389
					c-0.555-0.856-1.185-0.197-1.67,0.418c-0.297,0.027-0.563,0.053-0.685,0.086c-1.097,0.298-2.289,0.224-3.332-0.213
					c-1.451-0.604-2.121-1.488-3.003-2.572c0.015-0.052,0.027-0.104,0.04-0.154c0.004-0.018-0.005-0.033-0.005-0.051
					c-0.113-0.069-0.23-0.108-0.349-0.09c-0.199,0.029-0.373,0.16-0.523,0.332c0.011,0.065,0.012,0.135,0.027,0.201
					c-0.505,0.806-0.907,1.697-1.237,2.639c-0.064,0.214-0.131,0.428-0.198,0.64c-0.844,2.715-1.161,5.75-1.549,8.308
					C180.35,333.193,179.813,336.478,180.046,339.703z"/>
				<path style="fill:#A97C50;" d="M201.699,337.328c0.861,1.34,1.788,2.863,2.07,4.469c-0.093,0.67-0.353,1.313-0.866,1.926
					c-0.686,0.814-1.419,1.676-2.288,2.309c-2.024,1.475-4.63,2.217-7.131,2.074c-4.076-0.234-8.449-1.344-11.324-4.319
					c-0.854-2.299-1.056-4.798-0.977-7.245c0.096-2.984,0.512-5.954,1.008-8.895c0.34-2.018,0.892-3.943,1.447-5.87
					c0.095-0.682,0.195-1.361,0.328-2.037c0.036-0.176,0.163-0.205,0.296-0.168c0.007-0.027,0.015-0.054,0.021-0.08
					c0.031,0.047,0.073,0.09,0.107,0.137c0.095,0.057,0.177,0.137,0.208,0.213c0.016,0.035,0.029,0.071,0.043,0.106
					c0.478,0.542,1.095,1.007,1.753,1.364c-0.042,0.015-0.087,0.022-0.128,0.039c-0.516,0.199-1.01,0.504-1.154,1.086
					c-0.133,0.536-0.039,1.371,0.015,1.635c0.179-0.296,0.384-0.588,0.618-0.846c0.229-0.346,0.529-0.6,0.964-0.715
					c0.188-0.08,0.385-0.143,0.599-0.16c1.341-0.112,3.237,0.066,4.366,0.865c0.81,0.572,1.213,1.65,1.17,2.678
					c0.971-1.527-0.354-3.18-1.958-3.996c0.67-0.147,1.311-0.383,1.727-0.725c0.016,0.051,0.035,0.099,0.048,0.148
					c0.05,0.168,0.094,0.334,0.151,0.499c0.175,0.513,0.58,0.954,0.884,1.396c0.045,0.064,0.083,0.132,0.127,0.197
					C195.682,328.352,198.922,333.003,201.699,337.328z"/>
				<path style="fill:#603913;" d="M182.653,344.94c1.147,0.984,2.629,1.701,3.895,2.157c2.628,0.947,5.687,1.681,8.504,1.38
					c2.877-0.308,5.238-1.431,7.219-3.541c0.839-0.895,1.357-1.691,1.569-2.549c0.038,0.553-0.002,1.111-0.159,1.676
					c-0.451,1.623-1.311,3.19-2.72,4.183c-2.84,2.001-6.212,2.466-9.603,1.847C187.983,349.476,184.28,348.228,182.653,344.94z"/>
			</g>
			<g>
				<path style="fill:#4B1E0A;" d="M252.701,285.78c0.128-2.112,0.18-3.967-0.432-6.007c0.288-0.699,0.373-1.32,0.329-1.92
					c1.483-1.797-0.331-5.31-1.435-6.903c-0.798-1.15-1.804-2.066-3.034-2.727c-1.556-0.834-3.337-0.526-4.99-0.895
					c-0.074-0.026-0.148-0.053-0.223-0.078c-0.015-0.006-0.027,0.002-0.037,0.012l-0.001,0.002
					c-0.065-0.019-0.133-0.029-0.198-0.049c-0.043-0.014-0.1,0.057-0.055,0.084c0.055,0.033,0.112,0.057,0.167,0.088
					c-0.221,0.315-0.262,0.68-0.412,1.086c-0.407,1.105-0.891,2.256-1.537,3.25c-1.176,1.809-3.574,2.521-5.324,3.589
					c-0.024,0.015-0.04,0.045-0.059,0.071c0,0.11,0.002,0.222-0.001,0.332c0.031,0.015,0.063,0.027,0.118,0.01
					c0.013-0.005,0.025-0.009,0.038-0.013c-0.069,0.322-0.145,0.648-0.219,0.973c-0.265,2.696-1.268,5.268-2.144,7.822
					c-0.839,2.447,0.005,3.163,1.343,3.037c0.591-0.236,1.151-0.598,1.509-0.852c1.978-1.402,2.807-4.631,4.887-5.813
					c1.646,0.551,3.233,1.499,4.528,2.626c1.214,1.058,1.808,2.778,2.616,4.136c0.76,1.278,3.073,3.893,4.847,2.57
					C254.629,288.986,253.684,287.195,252.701,285.78z"/>
				<path style="fill:#FED1B4;" d="M251.24,289.389c-0.87-0.248-1.507-1.133-2.016-1.814c-1.165-1.561-1.698-3.421-3.083-4.836
					c-1.21-1.237-2.966-1.96-4.689-2.078c0.023-0.009,0.038-0.028,0.054-0.044c-0.677,0.013-1.332,0.18-2,0.604
					c-0.194,0.123-0.415,0.29-0.646,0.44c-1.258,1.632-2.057,3.433-3.724,4.683c-0.036,0.029-0.07,0.061-0.107,0.09
					c-0.078,0.058-0.166,0.115-0.256,0.169c-0.046,0.03-0.085,0.064-0.132,0.094c-0.007-0.003-0.012-0.006-0.018-0.009
					c-0.462,0.237-0.992,0.318-1.254-0.275c-0.165-0.374-0.105-0.729,0.049-1.068c0.038-0.177,0.137-0.359,0.302-0.55
					c0.221-0.433,0.431-0.872,0.63-1.315c0.356-0.768,0.618-1.55,0.849-2.362c0.471-1.654,0.949-3.758,0.634-5.506
					c0.008-0.008,0.012-0.02,0.02-0.029c1.722-1.004,3.648-1.658,4.976-3.231c0.706-0.836,1.113-1.84,1.483-2.858
					c0.032-0.089,0.454-1.519,0.713-1.984c1.818,0.938,3.884,0.943,5.604,2.296c1.577,1.242,3.869,4.677,3.791,7.081
					c-0.176-0.633-0.451-1.271-0.752-1.986c-0.347-0.826-0.784-1.529-1.378-2.199c-0.488-0.549-1.552-0.878-1.852-1.544
					c-0.014-0.031-0.062,0.002-0.059,0.027c0.034,0.346,0.195,0.522,0.425,0.8c0.644,0.781,1.216,1.439,1.635,2.383
					c0.355,0.801,0.57,1.652,0.925,2.455c0.223,0.504,0.268,1.018,0.282,1.535c-1.015-1.678-2.735-2.746-3.92-4.343
					c0.222,0.552,0.467,1.103,0.75,1.623c0.243,0.378,0.5,0.749,0.759,1.12c0.435,0.392,0.903,0.764,1.25,1.216
					c0.891,1.161,0.935,2.277,1.102,3.686c0.331,1.186,0.571,2.385,0.755,3.615c-0.008-0.012-0.017-0.023-0.024-0.035
					c-1.067-1.461-2.184-3.207-3.468-4.748c-0.37-0.285-0.737-0.598-1.081-0.937c-0.67-0.488-1.258-1.111-1.992-1.493
					c-0.25-0.131-0.556-0.174-0.838-0.255c0.014,0.031,0.015,0.067,0.046,0.09c2.188,1.603,3.723,3.658,5.35,5.806
					c0.771,1.016,1.543,2.033,2.233,3.105C253.596,288.049,253.154,288.908,251.24,289.389z"/>
			</g>
			<g>
				<path style="fill:#4B1E0A;" d="M98.28,201.462c0.587-4.82,0.314-9.528-1.077-14.188c-1.437-4.806-4.427-8.803-7.422-12.752
					c-1.424-1.878-3.422-3.136-4.821-5.045c-1.664-2.271-2.45-5.063-3.276-7.713c-0.922-2.959-1.536-7.204-4.497-8.881
					c-2.058-1.165-3.973,1.889-4.729,3.275c-1.71,3.137-1.944,6.303-1.678,9.826c0.052,0.676,0.087,1.312,0.139,1.932
					c-2.822-5.402-6.049-10.639-10.348-14.971c-2.837-2.859-6.099-5.285-9.46-7.489c-2.791-1.831-6.491-3.873-9.923-3.089
					c-2.216,0.507-3.722,2.518-4.215,4.619c-0.669,2.852,1.9,4.561,3.72,6.224c6.32,5.776,12.609,11.61,18.402,17.925
					c-1.627,0.127-3.145,0.682-4.261,1.959c-1.647,1.884-0.496,6.069,0.774,8.275c-0.246,0.188-0.482,0.389-0.7,0.612
					c-3.396,3.492-1.996,9.123-0.186,13.248c-0.545,0.795-0.752,1.873-0.429,3.385c1.052,4.913,4.466,8.537,8.09,11.803
					c3.285,2.961,7.844,7.232,12.421,7.894c1.982,0.286,4.028,0.123,5.923-0.482c0.443,0.65,2.223,3.049,3.369,3.472
					c0.362,0.241,0.746,0.439,1.169,0.548c2.09,0.537,4.543-1.823,6.118-2.802c1.775-1.104,5.955-3.188,6.305-5.564
					c0.269-1.824-0.674-4.188-2.187-5.332c0.454-0.5,0.83-0.98,1.024-1.268C97.6,205.299,98.052,203.332,98.28,201.462z"/>
				<path style="fill:#FED1B4;" d="M46.765,157.033c-2.239-2.241-4.614-4.423-7.029-6.474c-1.803-1.531-2.162-3.501-0.72-5.466
					c1.57-2.14,4.276-1.642,6.411-0.935c3.291,1.09,6.272,3.313,9.064,5.318c2.563,1.842,4.968,3.896,7.148,6.178
					c3.995,4.181,6.681,9.316,9.579,14.271c0.155,0.655,0.378,1.311,0.73,1.986c0.884,1.698,2.504,3.206,3.952,4.416
					c0.021,0.017,0.041,0.021,0.062,0.033c0.251,0.395,0.552,0.765,0.818,1.115c-3.386-2.295-7.705-3.988-11.389-5.287
					c-1.724-0.607-3.842-1.135-5.84-1.075C55.811,165.89,51.292,161.564,46.765,157.033z"/>
				<path style="fill:#FED1B4;" d="M55.169,177.257c-0.115-1.831-0.178-3.322,1.652-4.333c2.874-1.588,7.688,0.451,10.366,1.639
					c2.521,1.118,5.073,2.294,7.517,3.577c1.382,0.727,2.639,1.601,3.815,2.619c1.585,1.372,1.779,2.97,1.534,4.766
					c-3.073-3.141-7.86-4.471-12-5.295c-3.604-0.717-9.083-1.326-12.351,1.076C55.167,180.239,55.232,178.249,55.169,177.257z"/>
				<path style="fill:#FED1B4;" d="M54.753,193.784c-0.287-1.139-0.493-2.293-0.646-3.457c-0.326-2.487-0.277-5.156,1.349-7.205
					c2.273-2.864,7.958-2.125,11.093-1.607c3.706,0.613,7.454,1.687,10.618,3.767c1.728,1.135,3.109,2.707,3.938,4.603
					c0.659,1.512,1.534,4.451,0.72,6.167c-1.176-2.117-3.074-3.764-5.483-4.637c-5.09-1.845-11.323,0.531-16.357,1.465
					c-1.934,0.358-3.813,0.799-4.899,1.904C54.928,194.344,54.78,193.888,54.753,193.784z"/>
				<path style="fill:#FED1B4;" d="M92.329,210.404c0.055-0.015,0.11-0.03,0.165-0.044c0.133-0.036,0.285-0.301,0.085-0.36
					c0.564,0.167,1.37-0.356,2.117-1.038c0.622,1.842,3.01,3.523,0.636,5.52c-1.623,1.364-3.394,2.558-5.21,3.646
					c-1.604,0.96-3.295,2.932-5.341,1.936c-0.262-0.128-0.518-0.264-0.774-0.396c-0.713-0.809-1.59-1.457-2.406-2.162
					c1.466-0.594,2.819-1.457,3.937-2.625c0.054-0.056-0.016-0.131-0.078-0.086c-2.721,1.926-6.403,2.522-9.664,2.057
					c-3.648-0.521-6.933-3.536-9.738-5.711c-2.979-2.311-5.9-4.854-8.204-7.852c-0.94-1.225-1.63-2.563-2.14-4.015
					c-0.251-0.717-0.368-1.452-0.418-2.21c-0.016-0.237,0.005-0.453,0.047-0.652c0.025-0.017,0.05-0.041,0.057-0.063
					c0.102-0.309,0.117-0.299,0.112-0.42c0.618-1.227,2.425-1.596,3.754-1.717c7.383-0.672,16.952-4.9,21.504,3.441
					c0.496,0.91,1.095,2.24,1.434,3.604c-0.03,0.036-0.051,0.077-0.05,0.12c0.037,1.885,0.363,4.594-3.056,4.377
					c-1.438-0.092-2.974-0.508-4.342-0.909c-0.95-0.278-1.888-0.661-2.792-1.12c-0.036-0.158-0.187-0.23-0.346-0.186
					c-1.42-0.762-2.754-1.709-3.91-2.757c-0.058-0.053-0.15,0.049-0.109,0.108c0.844,1.222,1.771,2.208,2.781,3.029
					c-0.464,0.066-0.946,0.102-1.252,0.17c-0.977,0.218-2.601,0.595-3.435-0.123c-0.04-0.035-0.11,0.036-0.077,0.076
					c0.647,0.766,2.421,0.922,3.346,0.773c0.613-0.099,1.653,0.07,2.347-0.207c1.913,1.283,4.125,2.014,6.749,2.33
					c1.297,0.155,2.276-0.018,2.993-0.436c2.271-0.898,2.246-4.305,2.055-6.291c-0.115-1.195-0.436-2.316-0.899-3.354
					c0.727-0.662,1.077-1.583,1.183-2.609c1.136,2.188,2.537,4.216,4.133,5.803c0.366,0.364,0.868-0.305,0.682-0.673
					c-1.781-3.515-3.734-6.972-5.26-10.61c-0.836-1.992-1.274-4.127-1.452-6.271c-0.038-0.464-0.283-4.018,0.343-4.296
					c0.025-0.012,0.027-0.065-0.008-0.056c-0.552,0.152-0.588,1.141-0.676,1.587c-0.12,0.605-0.235,1.222-0.334,1.843
					c-0.34-0.642-0.781-1.25-1.278-1.801c0.001-0.037,0.011-0.075-0.002-0.109c-0.306-0.851-1.071-1.738-1.716-2.37
					c-0.395-0.388-0.927-0.728-1.381-1.122c0.073-0.13,0.1-0.288,0.039-0.415c-0.642-1.353-1.601-2.421-2.519-3.59
					c-1.511-1.922-1.743-4.098-1.756-6.468c-0.019-3.414-0.017-5.965,1.463-9.088c0.5-1.056,1.446-2.891,2.911-2.488
					c1.765,0.484,2.604,3.432,3.083,4.898c1.072,3.287,1.869,6.638,3.457,9.732c1.597,3.114,4.688,4.936,6.657,7.771
					c2.549,3.671,5.014,6.923,6.233,11.308c1.153,4.146,1.201,8.544,0.637,12.785c-0.281,2.115-0.585,4.053-1.767,5.894
					c-0.821,1.28-2.002,2.258-2.748,3.589C92.053,210.241,92.153,210.451,92.329,210.404z"/>
			</g>
			<g>
				<path style="fill:#4B1E0A;" d="M238.805,141.79c-0.232-1.84-0.911-3.589-1.708-5.279c2.276-9.351-0.998-18.527-4.674-27.127
					c-1.786-4.174-4.155-8.104-7.478-11.233c-0.861-0.81-3.012-2.126-5.012-2.864c1.153-0.691,2.306-1.479,3.339-2.262
					c0.805-0.61,1.183-1.404,0.438-2.217c-0.923-1.004-3.038-0.73-4.176-0.484c-1.737,0.377-2.801,1.291-4.128,2.17
					c-0.064-2.6-0.522-8.23-3.282-7.013c-1.057,0.466-1.1,1.626-1.104,2.642c-0.007,1.428-0.245,2.72-0.654,4.09
					c-1.715-7.398-9.002-12.162-15.941-14.834c-9.964-3.834-21.428-3.385-31.819-2.002c-11.644,1.549-23.021,5.275-33.098,11.345
					c-8.618,5.19-18.147,12.253-21.295,22.216c-1.51,0.162-3.03,0.232-4.602,0.178c-1.648-0.059-4.396-0.826-5.49,0.851
					c-0.778,1.194,0.636,3.067,1.342,3.909c1.404,1.673,3.443,2.793,5.586,3.064c-0.563,0.487-1.113,0.988-1.637,1.51
					c-2.655,2.64-4.188,5.979-4.821,9.639c-0.182,1.047-1.099,4.896,1.137,4.719c2.067-0.164,3.716-1.836,5.187-3.188
					c-0.73,3.977-0.132,8.216,1.313,12.292c0.524,1.475,1.884,5.084,4.059,4.539c2.105-0.525,3.365-3.242,3.875-5.691
					c0.372,1.301,0.854,2.514,1.679,3.77c0.454,0.692,1.31,2.043,2.325,2.211c-0.18,4.286-0.559,8.543-1.833,12.717
					c-0.983,3.229-2.505,6.228-3.379,9.5c-0.823,3.082-1.172,6.284-1.13,9.469c0.153,11.83,10.821,20.559,20.573,25.25
					c11.865,5.707,25.954,8.031,38.925,5.539c13.254-2.547,25.19-10.409,34.269-20.258c2.481-2.691,4.57-5.662,6.184-8.877
					c2.159,1.031,5.526-0.896,7.391-1.9c3.749-2.018,6.452-4.996,8.911-8.412c3.623-5.029,6.857-11.291,6.177-17.361
					c0.008,0.019,0.015,0.037,0.022,0.057c0.727,1.738,0.958,3.576,1.06,5.439c0.019,0.344,0.425,0.273,0.572,0.072
					c1.517-2.053,2.235-4.285,2.625-6.785C238.996,148.178,239.188,144.815,238.805,141.79z"/>
				<path style="fill:#FED1B4;" d="M199.955,192.526c-5.644,4.801-11.999,9.101-18.837,11.994
					c-6.985,2.955-14.746,4.025-22.286,3.756c-12.901-0.463-26.865-4.96-36.652-13.584c-4.773-4.206-8.461-10.217-9.351-16.57
					c-1.111-7.916,3.068-14.305,5.249-21.55c2.646-8.787,0.837-18.383,2.347-27.39c4.119-1.895,9.683-7.168,12.293-9.63
					c-1.068,2.608-2.018,6.546,1.098,7.843c3.319,1.381,8.594-2.256,11.191-3.826c4.233-2.561,8.02-5.739,11.66-9.072
					c-0.899,2.979-0.821,5.537,1.943,5.674c3.183,0.158,6.156-2.238,8.547-4.049c3.393-2.572,6.422-5.672,9.234-8.879
					c0.188,1.191,0.436,2.377,0.703,3.55c0.449,1.958,0.621,5.544,2.363,6.921c2.043,1.617,3.985-2.857,5.252-7.209
					c0.114,0.376,0.257,0.746,0.423,1.103c0.958,2.058,1.772,4.194,2.7,6.269c0.604,1.347,2.437,5.744,4.62,3.732
					c1.467-1.353,2.119-3.585,2.527-5.715c1.059,2.803,3.127,5.211,4.819,7.643c2.337,3.359,3.784,7.178,5.038,11.043
					c1.344,4.147,2.71,8.262,3.695,12.515c0.419,1.806,0.332,6.05,2.732,6.71c0.979,0.27,1.777-0.094,2.433-0.851
					c0.604,7.396,1.631,14.79-0.608,22.032C210.885,182.108,205.506,187.804,199.955,192.526z"/>
				<path style="fill:#FED1B4;" d="M134.593,173.992c0,0,1.438,7.727,19.407,4.672c17.97-3.055,30.729-9.345,32.885-12.399
					c-0.18-2.336,0.72-3.055,4.314-1.797c3.594,1.258,0.54,2.875-0.719,2.875c-1.798,3.954-2.876,5.211-6.11,15.634
					c-3.234,10.423-12.105,19.338-23.493,19.277c-9.392-0.05-18.197-6.16-21.072-17.66
					C138.907,181.898,130.639,177.946,134.593,173.992z"/>
				<path style="fill:#FED1B4;" d="M214.564,151.576c0.581-1.214,1.003-2.769,1.309-4.347c0.782-1.181,1.841-2.156,3-2.598
					c2.406-0.919,3.352,2.778,3.641,4.336c0.363,1.957,0.294,3.967-0.054,5.918c-0.292,1.633-1.064,3.129-1.976,4.49
					c-1.301,1.946-3.024,2.531-5.172,2.947c-0.021,0.004-0.032,0.023-0.049,0.033c-0.054-1.154-0.151-2.307-0.267-3.455
					c0.21-0.543,0.427-1.074,0.636-1.608c0.375-0.05,0.761-0.13,1.118-0.214c0.409-0.094,0.81-0.232,1.137-0.502
					c0.132-0.107,0.071-0.369-0.122-0.314c-0.457,0.129-0.857-0.131-1.29-0.238c-0.124-0.031-0.242-0.054-0.358-0.068
					c0.084-0.258,0.167-0.516,0.239-0.783c0.193-0.709,0.398-1.404,0.72-2.067c0.11-0.221,0.216-0.444,0.317-0.671
					c0.085-0.175,0.172-0.351,0.259-0.526c0.353-0.768,1.057-0.808,2.113-0.12c0.027,0.115,0.187,0.026,0.193-0.057
					c0.17-2.262-2.35-1.85-3.275-0.471c-0.846,1.26-1.304,2.725-1.703,4.168c-0.082,0.297-0.183,0.596-0.282,0.896
					c-0.159-1.217-0.335-2.426-0.526-3.613c-0.019-0.115-0.085-0.154-0.159-0.165c0.159-0.23,0.306-0.483,0.447-0.757
					c0.042,0.029,0.117-0.027,0.111-0.084C214.567,151.663,214.567,151.62,214.564,151.576z"/>
				<path style="fill:#DB9C28;" d="M237.188,149.667c-0.16,2.394-0.38,4.877-1.35,7.087c-0.411-2.808-1.065-5.769-2.426-8.289
					c-0.505-0.612-1.047-1.189-1.646-1.714c-0.164,0.146-0.268,0.387-0.189,0.586c1.423,3.572,1.773,7.491,0.507,11.152
					c-1.06,3.061-2.697,6.152-4.389,8.902c-1.844,2.999-4.219,5.982-7.04,8.099c-1.084,0.812-2.205,1.539-3.4,2.178
					c-1.172,0.627-3.755,2.129-5.034,1.513c0.971-2.082,1.738-4.264,2.267-6.545c0.743-3.209,0.927-6.553,0.797-9.9
					c0.009,0.002,0.012,0.011,0.021,0.01c8.058-0.189,10.347-10.131,8.286-16.506c-0.912-2.821-3.396-4.192-6.012-2.52
					c-0.482,0.309-0.928,0.706-1.328,1.163c0.266-2.003,0.371-3.755,0.419-4.5c0.061-0.94,0.099-1.873,0.113-2.8
					c-0.022-0.043-0.044-0.09-0.053-0.154c-0.786-5.738-0.263-13.135-3.909-18.019c1.265,6.168,2.372,12.339,2.229,18.656
					c-0.063,2.684-0.277,5.357-0.717,8.006c-0.247,1.48-0.658,2.918-1.171,4.327c-0.477,1.312-1.886,1.106-2.341-0.106
					c-0.328-0.877-0.377-1.977-0.503-2.906c-0.815-6.072-3.133-12.345-5.361-18.021c-2.088-5.313-5.897-9.818-9.913-13.805
					c0.145-0.799,0.259-1.578,0.368-2.279c0.519-3.317,0.458-6.697,0.018-10.019c-0.13,1.914-0.5,3.827-0.842,5.743
					c-0.401,2.255-0.368,4.646-1.335,6.708c-0.226,0.994-0.481,1.982-0.814,2.955c-0.641,1.871-1.819,0.887-2.472-0.389
					c-0.627-1.229-1.22-2.476-1.844-3.711c-0.525-1.042-1.058-2.412-1.798-3.313c-0.462-0.563-0.974-1.109-1.338-1.74
					c0.445-1.649,0.783-3.206,0.984-4.329c-0.611,1.296-1.364,2.544-2.135,3.771c-0.445,1.446-0.971,2.949-1.709,4.211
					c-0.321,0.792-1.372,3.206-2.081,2.201c-1.756,0.565-2.115-3.857-2.395-5.012c-0.383-1.582-1.049-3.456-1.52-5.363
					c0.026,0.358,0.055,0.716,0.098,1.072c-4.118,3.688-7.927,7.729-12.575,10.776c-1.279,0.839-2.77,1.612-4.309,1.79
					c-2.859,0.332-1.458-3.871-1.11-5.177c0.718-2.703,1.679-5.778,3.126-8.173c0.03-0.051-0.031-0.09-0.065-0.043
					c-0.78,1.053-2.993,4.688-4.246,8.109c-5.887,4.462-12.002,9.293-18.956,11.938c-1.768,0.672-5.03,1.389-4.796-1.982
					c0.133-1.918,0.851-3.774,1.601-5.523c1.453-3.398,3.469-6.439,5.835-9.256c0.028-0.033-0.015-0.072-0.047-0.043
					c-2.991,2.684-5.508,5.951-7.277,9.564c-2.442,1.791-4.851,3.626-7.232,5.497c-0.714,0.561-3.185,2.685-5.396,3.866
					c0.014-0.058,0.032-0.113,0.046-0.172c-0.271,0.123-0.558,0.207-0.859,0.248c-0.033,0.122-0.069,0.243-0.101,0.365
					c-1.429,0.59-2.606,0.576-2.891-0.838c-0.572-2.842,0.476-5.961,1.456-8.582c1.213-3.241,2.854-6.679,5.465-9.019
					c0.02-0.019,0.002-0.06-0.024-0.04c-2.95,2.186-4.795,5.564-6.403,8.795c-1.392,2.797-2.724,6.777-1.812,9.934
					c0.531,1.836,1.966,2.091,3.812,1.463c-0.507,2.454-0.794,4.967-0.95,7.467c-0.176,2.827-0.214,5.659-0.311,8.48
					c-0.031,0.029-0.05,0.066-0.075,0.1c-0.573-0.441-1.336-1.564-1.526-1.813c-1.309-1.719-1.876-3.55-2.187-5.663
					c-0.084-0.57-0.757-0.286-0.839,0.136c-0.277,1.428-0.91,2.813-1.528,4.118c-0.841,1.772-1.873,2.833-3.104,1.003
					c-0.855-1.273-1.375-2.912-1.743-4.393c-1.507-6.059-1.994-12.338,1.934-17.656c0.049-0.066-0.036-0.152-0.095-0.088
					c-2.024,2.236-3.279,4.735-3.921,7.368c-0.061-0.02-0.132-0.024-0.22,0.007c-1.197,0.424-2.262,1.173-3.331,1.84
					c-1.59,0.994-1.92,0.15-1.658-1.456c0.244-1.493,0.546-2.938,1.029-4.378c1.008-3.008,3.228-5.418,5.52-7.524
					c1.821-1.674,4.089-2.744,5.865-4.435c0.038-0.035,0.008-0.119-0.045-0.08c-1.334,0.971-3.013,1.37-4.424,2.242
					c-0.625,0.387-1.223,0.821-1.806,1.275c-1.508-0.797-3.112-1.373-4.545-2.31c-0.761-0.498-1.405-1.162-1.958-1.877
					c-1.422-1.835,0.979-2.059,2.222-2.025c1.195,0.033,2.338,0.01,3.454-0.063c0.095-0.144,0.235-0.255,0.402-0.251
					c1.187,0.024,2.347-0.061,3.485-0.238c0.003-0.005,0.005-0.01,0.007-0.014c1.566-0.309,3.131-0.741,4.759-1.326
					c0.039-0.013,0.042-0.082-0.007-0.07c-1.514,0.357-2.999,0.645-4.491,0.853c0.749-1.617,1.432-3.257,2.396-4.772
					c1.443-2.266,3.532-4.229,5.466-6.074c3.888-3.709,8.322-6.816,12.868-9.658c9.438-5.897,20.41-9.293,31.357-10.946
					c9.395-1.419,19.293-1.694,28.566,0.604c7.891,1.957,17.547,6.916,20.026,15.219c-0.116,0.347-0.23,0.692-0.341,1.041
					c-0.025,0.082-0.376,0.837-0.688,1.404c1.157-0.752,1.733-2.071,2.45-3.33c0.311-0.853,0.553-1.68,0.703-2.346
					c0.2-0.893,0.125-3.707,1.039-1.572c0.785,1.832,0.576,3.73,0.698,5.658c0.031,0.49,0.613,0.748,1.011,0.47
					c2.154-1.511,3.716-2.837,6.495-2.858c1.985-0.014-0.987,1.642-1.237,1.814c-0.635,0.438-1.15,0.877-1.609,1.434
					c-1.057-0.233-1.956-0.197-2.43,0.316c0.021-0.023,0.017-0.073-0.024-0.063c-0.11,0.029-0.219,0.059-0.328,0.088
					c-0.148,0.039-0.178,0.277-0.006,0.296c1.797,0.187,3.909,1.44,5.513,2.252c1.771,0.897,3.159,2.481,4.403,3.985
					c2.715,3.283,4.532,7.121,6.086,11.059c1.517,3.842,2.667,7.783,3.769,11.758c0.906,3.277,0.496,6.482,0.443,9.75
					c-0.155-0.305-0.31-0.609-0.462-0.912c-1.383-2.762-3.766-4.587-5.925-6.703c-0.027-0.027-0.075,0.02-0.051,0.048
					c3.411,3.971,5.787,8.882,7.347,13.868C237.814,143.478,237.385,146.725,237.188,149.667z"/>
				<path style="fill:#4B1E0A;" d="M138.423,146.274c-1.903-0.01-3.461,3.067-3.484,6.87c-0.017,3.808,1.506,6.901,3.409,6.911
					c1.902,0.011,3.464-3.066,3.483-6.871C141.854,149.379,140.327,146.286,138.423,146.274z M140.979,151.251
					c-0.006,1.203-0.499,2.179-1.102,2.174c-0.604-0.002-1.085-0.98-1.078-2.188c0.006-1.203,0.5-2.178,1.101-2.174
					C140.502,149.066,140.986,150.047,140.979,151.251z"/>
				<path style="fill:#4B1E0A;" d="M181.424,144.274c-1.903-0.01-3.461,3.067-3.484,6.87c-0.017,3.808,1.506,6.901,3.409,6.911
					c1.902,0.011,3.464-3.066,3.483-6.871C184.854,147.379,183.327,144.286,181.424,144.274z M183.979,149.251
					c-0.006,1.203-0.499,2.179-1.102,2.174c-0.605-0.002-1.085-0.98-1.078-2.188c0.006-1.203,0.5-2.178,1.101-2.174
					C183.503,147.066,183.986,148.047,183.979,149.251z"/>
				<path style="fill:#4B1E0A;" d="M143.016,136.207c-1.395-3.561-5.659-3.182-8.059-0.918c-0.824,0.777-3.51,4.548-2.018,5.637
					c0.103,0.075,0.264-0.034,0.251-0.157c-0.127-1.229,2.042-2.476,2.903-2.936c1.939-1.037,2.394,0.715,3.911,1.365
					C141.583,139.874,143.635,137.786,143.016,136.207z"/>
				<path style="fill:#4B1E0A;" d="M175.126,131.214c1.001-3.689,5.28-3.777,7.912-1.787c0.903,0.684,3.982,4.139,2.617,5.385
					c-0.094,0.086-0.266-0.006-0.267-0.129c-0.007-1.236-2.299-2.24-3.205-2.604c-2.04-0.82-2.302,0.971-3.739,1.781
					C176.949,134.704,174.683,132.851,175.126,131.214z"/>
				<path style="fill:#4B1E0A;" d="M164.926,170.448c-1.735,1.4-3.313,2.765-5.526,3.343c-2.63,0.687-5.929-1.053-7.521-3.052
					c-1.83-2.297-1.072-5.68,0.988-7.531c2.223-1.998,6.997-0.365,9.11,1.006c0.097,0.063,0.217-0.083,0.133-0.164
					c-1.772-1.715-5.268-3.23-7.99-2.722c2.186-3.013,2.231-7.636,0.776-10.878c-0.011-0.021-0.045,0.004-0.039,0.024
					c1.25,3.806,0.498,8.074-1.903,11.232c-2.972,1.394-4.328,4.411-3.878,7.614c0.505,3.595,4.042,5.549,7.284,6.074
					c3.623,0.589,6.706-2.054,8.85-4.629C165.385,170.556,165.155,170.265,164.926,170.448z"/>
				<path style="fill:#4B1E0A;" d="M190.699,165.476c-0.773-0.215-1.51-0.52-2.209-0.912c-0.536-0.262-1.217,0.732-0.683,1.066
					c1.735,1.083-9.506,7.395-10.421,7.838c-4.202,2.032-8.865,3.386-13.351,4.598c-4.229,1.144-8.569,1.885-12.918,2.377
					c-4.424,0.5-15.809,1.357-17.033-4.996c-0.011-0.053-0.084-0.014-0.083,0.027c0.087,3.433,2.44,5.224,5.739,6.049
					c1.132,1.475,1.64,4.367,1.962,5.514c0.77,2.736,3.152,5.771,5.065,7.809c4.301,4.58,10.28,6.715,16.451,5.678
					c15.527-2.609,19.802-17.316,23.186-30.551c1.366-1.01,2.489-2.162,2.983-3.467c0.175,0.076,0.385,0.164,0.668,0.283
					C190.785,167.093,191.495,165.751,190.699,165.476z M160.398,180.177c5.588-1.179,11.229-2.908,16.492-5.229
					c-3.845,4.281-7.458,7.512-13.444,8.729c-5.986,1.216-13.331,3.586-18.063-1.564
					C151.198,182.122,157.62,180.762,160.398,180.177z M154.545,198.282c-1.696-0.637-3.202-1.494-4.551-2.518
					c3.628-4.156,9.119-6.44,14.452-7.249c4.97-0.754,8.547-0.262,13.032,1.549C172.712,197.232,162.816,201.383,154.545,198.282z
					 M178.133,189.034c-2.045-1.006-3.56-1.895-6.011-2.197c-2.992-0.367-6.272,0.107-9.226,0.555
					c-4.655,0.705-10.75,3.748-13.298,8.057c-3.63-2.917-6.061-7.086-7.814-11.527c-0.256-0.648-0.614-1.488-1.087-2.189
					c1.237,0.231,2.579,0.348,3.967,0.378c2.86,5.446,10.155,5.313,15.502,4.344c7.819-1.419,13.056-5.623,17.772-11.805
					c0.059-0.077,0.079-0.152,0.08-0.222c0.375-0.174,0.754-0.34,1.125-0.52c1.658-0.804,4.232-1.914,6.42-3.35
					C183.143,176.855,181.689,183.213,178.133,189.034z"/>
				<path style="fill:#4B1E0A;" d="M138.423,146.274c-1.903-0.01-3.461,3.067-3.484,6.87c-0.017,3.808,1.506,6.901,3.409,6.911
					c1.902,0.011,3.464-3.066,3.483-6.871C141.854,149.379,140.327,146.286,138.423,146.274z"/>
				<path style="fill:#FED1B4;" d="M138.431,144.821c-2.305-0.013-4.191,3.714-4.22,8.319c-0.02,4.61,1.823,8.357,4.129,8.369
					c2.304,0.013,4.194-3.714,4.218-8.321C142.585,148.58,140.736,144.835,138.431,144.821z"/>
				<path style="fill:#FFFFFF;" d="M140.979,151.251c-0.006,1.203-0.499,2.179-1.102,2.174c-0.604-0.002-1.085-0.98-1.078-2.188
					c0.006-1.203,0.5-2.178,1.101-2.174C140.502,149.066,140.986,150.047,140.979,151.251z"/>
				<path style="fill:#4B1E0A;" d="M181.424,144.274c-1.903-0.01-3.461,3.067-3.484,6.87c-0.017,3.808,1.506,6.901,3.409,6.911
					c1.902,0.011,3.464-3.066,3.483-6.871C184.854,147.379,183.327,144.286,181.424,144.274z"/>
				<path style="fill:#FED1B4;" d="M181.431,143.01c-2.253-0.012-4.097,3.63-4.124,8.131c-0.02,4.507,1.782,8.169,4.035,8.18
					c2.251,0.014,4.1-3.629,4.123-8.132C185.491,146.684,183.684,143.023,181.431,143.01z"/>
				<path style="fill:#FFFFFF;" d="M183.979,149.251c-0.006,1.203-0.499,2.179-1.102,2.174c-0.605-0.002-1.085-0.98-1.078-2.188
					c0.006-1.203,0.5-2.178,1.101-2.174C183.503,147.066,183.986,148.047,183.979,149.251z"/>
				<path style="fill:#4B1E0A;" d="M143.016,136.207c-1.395-3.561-5.659-3.182-8.059-0.918c-0.824,0.777-3.51,4.548-2.018,5.637
					c0.103,0.075,0.264-0.034,0.251-0.157c-0.127-1.229,2.042-2.476,2.903-2.936c1.939-1.037,2.394,0.715,3.911,1.365
					C141.583,139.874,143.635,137.786,143.016,136.207z"/>
				<path style="fill:#4B1E0A;" d="M175.126,131.214c1.001-3.689,5.28-3.777,7.912-1.787c0.903,0.684,3.982,4.139,2.617,5.385
					c-0.094,0.086-0.266-0.006-0.267-0.129c-0.007-1.236-2.299-2.24-3.205-2.604c-2.04-0.82-2.302,0.971-3.739,1.781
					C176.949,134.704,174.683,132.851,175.126,131.214z"/>
				<path style="fill:#FED1B4;" d="M143.317,138.013c-1.396-3.561-5.659-3.182-8.059-0.918c-0.824,0.777-3.51,4.548-2.018,5.637
					c0.102,0.075,0.264-0.034,0.251-0.157c-0.127-1.229,2.042-2.476,2.903-2.936c1.938-1.037,2.393,0.715,3.911,1.365
					C141.884,141.68,143.936,139.592,143.317,138.013z"/>
				<path style="fill:#FED1B4;" d="M175.427,133.02c1.001-3.689,5.28-3.777,7.912-1.787c0.903,0.684,3.982,4.139,2.617,5.385
					c-0.094,0.086-0.266-0.006-0.267-0.129c-0.007-1.236-2.299-2.24-3.205-2.604c-2.04-0.82-2.302,0.971-3.739,1.781
					C177.25,136.51,174.983,134.656,175.427,133.02z"/>
				<path style="fill:#4B1E0A;" d="M164.926,170.448c-1.735,1.4-3.313,2.765-5.526,3.343c-2.63,0.687-5.929-1.053-7.521-3.052
					c-1.83-2.297-1.072-5.68,0.988-7.531c2.223-1.998,6.997-0.365,9.11,1.006c0.097,0.063,0.217-0.083,0.133-0.164
					c-1.772-1.715-5.268-3.23-7.99-2.722c2.186-3.013,2.231-7.636,0.776-10.878c-0.011-0.021-0.045,0.004-0.039,0.024
					c1.25,3.806,0.498,8.074-1.903,11.232c-2.972,1.394-4.328,4.411-3.878,7.614c0.505,3.595,4.042,5.549,7.284,6.074
					c3.623,0.589,6.706-2.054,8.85-4.629C165.385,170.556,165.155,170.265,164.926,170.448z"/>
				<path style="fill:#4B1E0A;" d="M190.699,165.476c-0.773-0.215-1.51-0.52-2.209-0.912c-0.536-0.262-1.217,0.732-0.683,1.066
					c1.735,1.083-9.506,7.395-10.421,7.838c-4.202,2.032-8.865,3.386-13.351,4.598c-4.229,1.144-8.569,1.885-12.918,2.377
					c-4.424,0.5-15.809,1.357-17.033-4.996c-0.011-0.053-0.084-0.014-0.083,0.027c0.087,3.433,2.44,5.224,5.739,6.049
					c1.132,1.475,1.64,4.367,1.962,5.514c0.77,2.736,3.152,5.771,5.065,7.809c4.301,4.58,10.28,6.715,16.451,5.678
					c15.527-2.609,19.802-17.316,23.186-30.551c1.366-1.01,2.489-2.162,2.983-3.467c0.175,0.076,0.385,0.164,0.668,0.283
					C190.785,167.093,191.495,165.751,190.699,165.476z"/>
				<path style="fill:#FFFFFF;" d="M160.398,180.177c5.588-1.179,11.229-2.908,16.492-5.229c-3.845,4.281-7.458,7.512-13.444,8.729
					c-5.986,1.216-13.331,3.586-18.063-1.564C151.198,182.122,157.62,180.762,160.398,180.177z"/>
				<path style="fill:#F04E64;" d="M154.545,198.282c-1.696-0.637-3.202-1.494-4.551-2.518c3.628-4.156,9.119-6.44,14.452-7.249
					c4.97-0.754,8.547-0.262,13.032,1.549C172.712,197.232,162.816,201.383,154.545,198.282z"/>
				<path style="fill:#F48388;" d="M178.133,189.034c-2.045-1.006-3.56-1.895-6.011-2.197c-2.992-0.367-6.272,0.107-9.226,0.555
					c-4.655,0.705-10.75,3.748-13.298,8.057c-3.63-2.917-6.061-7.086-7.814-11.527c-0.256-0.648-0.614-1.488-1.087-2.189
					c1.237,0.231,2.579,0.348,3.967,0.378c2.86,5.446,10.155,5.313,15.502,4.344c7.819-1.419,13.056-5.623,17.772-11.805
					c0.059-0.077,0.079-0.152,0.08-0.222c0.375-0.174,0.754-0.34,1.125-0.52c1.658-0.804,4.232-1.914,6.42-3.35
					C183.143,176.855,181.689,183.213,178.133,189.034z"/>
			</g>
			<g>
				<g>
					<path style="fill:#4B1E0A;" d="M89.806,102.565c0.032-0.123,0.049-0.247,0.026-0.355c-0.304-1.433-0.736-3.139-1.682-4.348
						c0.039-0.832-0.251-1.406-0.741-1.777c0.096-0.173,0.169-0.355,0.204-0.522c0.195-0.936,0.022-1.826-0.346-2.698
						c-0.245-0.582-0.571-1.058-1.019-1.415c0.481-0.881,0.583-2.373,0.159-3.225c-0.18-0.361-0.558-0.604-0.956-0.762
						c0.029-0.081,0.036-0.166,0.002-0.246c-0.039-0.087-0.064-0.17-0.104-0.255c0.009-0.136-0.04-0.263-0.148-0.37
						c-1.555-3.815-1.602-7.349-0.175-11.352c1.196-3.359,2.966-6.476,4.095-9.87c2.205-6.634,1.158-14.253-1.197-20.705
						c-2.071-5.676-5.636-10.182-11.075-12.907c-5.461-2.735-12.02-2.71-17.868-1.492c-11.305,2.35-21.51,10.411-26.32,20.892
						c-4.788,10.427-2.708,22.593,6.27,29.972c3.508,2.885,7.87,4.4,12.077,5.941c4.5,1.653,9.491,3.396,12.019,7.696
						c-0.157,0.272-0.274,0.603-0.356,0.939c-0.01,0.017-0.02,0.029-0.028,0.045c-0.015,0.034-0.013,0.062-0.005,0.082
						c-0.104,0.465-0.152,0.918-0.159,1.21c-0.032,1.177,1.151,2.886,2.381,2.808c-0.533,1.507-0.57,2.948,0.842,3.036
						c-0.536,1.475-0.572,3.244,1.097,3.406c0.217,0.501,0.546,1.05,0.603,1.188c0.491,1.171,0.548,2.441,0.954,3.639
						c0.082,0.234,0.224,0.353,0.387,0.4c0.052,0.297,0.196,0.56,0.528,0.741c0.153,0.088,0.271,0.237,0.452,0.258
						c0.01,0,0.018-0.002,0.026,0c0.269,0.166,0.604,0.286,1.061,0.311c3.641,0.198,7.506-1.2,10.747-2.709
						c2.614-1.213,5.407-2.646,7.471-4.708C89.584,104.852,91.104,102.989,89.806,102.565z"/>
					<g>
						<path style="fill:#FFE61E;" d="M63.322,94.326c-0.762-2.07-1.683-3.7-3.636-5.084c-2.817-2-6.376-3.083-9.577-4.281
							c-6.59-2.463-12.292-5.697-15.858-11.977c-6.894-12.141,0.5-26.551,10.465-34.247c10.311-7.959,28.116-11.562,37.563-0.35
							c4.69,5.57,6.377,13.872,6.244,20.956c-0.141,7.47-4.947,13.73-5.61,21.099c-0.178,1.971,0.262,3.844,1.003,5.622
							c-1.195-0.188-2.613,0.129-3.716,0.238c-1.275,0.126-2.54,0.356-3.789,0.66c-0.006-0.015-0.003-0.022-0.009-0.039
							c-0.025-0.063-0.057-0.106-0.098-0.142c-1.214-5.325-2.246-10.669-3.139-16.062c-0.72-4.354-1.596-8.834-1.998-13.299
							c0.147-0.172,0.284-0.345,0.408-0.517c2.458-3.334,4.729-7.96,3.284-12.161c-0.289-0.83-0.823-1.469-1.729-1.185
							c-1.188,0.371-1.539,2.792-1.798,3.689c-0.781,2.72-0.925,5.601-0.775,8.505c-0.052,0.067-0.101,0.137-0.153,0.206
							c-1.651,2.143-2.963,0.232-4.05-1.175c-1.725-2.23-3.222-4.671-4.31-7.28c-0.087-0.209-0.372-0.171-0.452,0.033
							c-0.719,1.802-0.52,4.053-0.52,5.964c0,2.66,0.356,5.346,0.66,7.984c0.395,3.43-1.938-0.133-2.695-1.026
							c-1.866-2.192-3.627-4.479-5.479-6.683c-0.152-0.182-0.379-0.084-0.481,0.097c-0.556,0.981-0.167,2.469-0.022,3.518
							c0.146,1.041,0.486,2.151,0.759,3.257c-0.542-0.732-1.042-1.499-1.564-2.253c-1.182-1.71-2.688-3.221-3.996-4.835
							c-0.082-0.099-0.266,0.019-0.215,0.134c1.207,2.754,1.806,5.758,2.67,8.631c0.106,0.354,0.371,1.188,0.659,2.221
							c-2.021-1.971-4.228-3.581-7.187-4.063c-2.394-0.393-2.24,1.765-1.513,3.301c1.437,3.036,4.006,6.44,6.885,8.209
							c1.399,0.857,3.647,1.243,3.63-1.095c-0.007-1.407-0.239-2.83-0.591-4.258c2.246,2.305,4.297,4.833,6.268,7.365
							c3.849,4.941,6.689,10.694,9.039,16.483c-0.745,0.445-1.459,0.94-2.127,1.479C64.806,92.576,63.955,93.311,63.322,94.326z"/>
						<path style="fill:#FFE61E;" d="M52.277,65.468c-0.839-2.906-2.068-5.799-2.846-8.533c-0.214-0.753-0.722-2.063-0.925-2.419
							c0.768,1.339,1.601,2.638,2.371,3.975c1.097,1.914,2.078,3.854,3.565,5.499c0.534,0.591,1.345-0.332,1.363-0.856
							c0.032-1.004-0.337-1.855-0.598-2.819c-0.341-1.258-0.503-2.616-1.009-3.815c-0.217-0.515-0.446-1.013-0.633-1.538
							c-0.256-0.713,1.623,1.428,1.841,1.688c1.121,1.338,2.162,2.744,3.218,4.138c0.872,1.148,2.64,4.756,3.666,1.87
							c0.258-0.731-0.051-1.806-0.148-2.548c-0.211-1.623-0.353-3.254-0.452-4.887c-0.104-1.687-0.149-3.333-0.046-5.021
							c0.026-0.453-0.177-2.88,0.334-1c0.207,0.767,0.484,1.504,0.765,2.246c0.981,2.604,2.38,4.896,4.345,6.867
							c1.256,1.259,2.603,0.596,3.628-0.41c0.3,3.191,0.846,6.376,1.197,9.381c0.781,6.712,1.911,13.369,3.661,19.899
							c-1.186,0.331-2.356,0.725-3.489,1.214c-1.341,0.577-2.739,1.236-4.062,2.017c-3.235-9.083-8.182-16.741-14.717-23.849
							C52.965,66.194,52.623,65.829,52.277,65.468z"/>
						<path style="fill:#FFFFFF;" d="M50.817,71.855c-2.583-0.865-4.56-3.588-6.021-5.725c-0.491-0.715-1.009-1.414-1.474-2.148
							c-0.282-0.462-0.505-0.949-0.673-1.465c-0.851-2.385,2.636-1.279,3.135-1.122c2.411,0.762,4.169,2.535,5.888,4.295
							C52.442,68.762,53.036,72.598,50.817,71.855z"/>
						<path style="fill:#FFFFFF;" d="M70.964,51.535c0.052-1.447,0.288-2.862,0.61-4.27c0.172-0.676,0.382-1.339,0.633-1.99
							c0.402-1.116,1.795-1.071,1.923,0.178c0.224,2.201-0.41,4.422-1.235,6.427c-0.48,1.165-1.147,2.239-1.883,3.261
							C70.953,53.935,70.923,52.73,70.964,51.535z"/>
						<path style="fill:#87D7F4;" d="M68.236,105.684c0.234-0.48,0.05-1.143-0.553-1.187c0.236,0.051,0.23,0.02-0.019-0.087
							c-0.692-0.363-0.773-0.862-0.24-1.5c0.511-1.224,1.754-2.055,2.839-2.714c1.725-1.046,3.599-1.82,5.315-2.886
							c0.059-0.035,0.049-0.134-0.03-0.105c-3.138,1.21-6.398,1.435-8.865,3.964c-0.06,0.062-0.12,0.134-0.18,0.21
							c-1.156-1.385,1.663-3.974,2.738-4.988c2.838-2.679,7.051-3.573,10.646-4.729c0.079-0.027,0.104-0.167-0.003-0.15
							c-4.991,0.666-9.772,1.326-13.314,5.283c-0.362,0.407-0.796,1.065-1.173,1.801c-0.311-0.087-0.628-0.161-0.912-0.338
							c-0.245-0.154-0.448-0.38-0.622-0.625c-0.827-2.043,1.765-4.161,3.439-5.624c1.239-0.708,2.557-1.291,3.862-1.845
							c3.945-1.676,8.46-2.656,12.784-2.455c0.688,0.34,1.332,0.854,1.196,1.635c-0.07,0.397-0.295,0.99-0.34,1.523
							c-0.27-0.023-0.542-0.021-0.799-0.013c-0.262,0.009-0.524,0.042-0.782,0.067c0.164-0.015-1.354-0.034-1.166-0.149
							c0.025-0.017,0.021-0.061-0.013-0.046c-0.11,0.038-0.22,0.073-0.329,0.111c-0.055,0.018-0.108,0.097-0.052,0.144
							c1.131,0.932,2.775,0.819,3.698,2.046c0.451,0.599,0.653,1.369,0.697,2.106c0.009,0.14-0.003,0.282-0.021,0.425
							c-1.424-0.213-3.206,0.208-4.166,0.781c-0.065,0.039-0.085,0.188,0.021,0.159c0.99-0.286,2.175-0.067,3.155,0.18
							c0.593,0.148,0.95,0.542,1.303,0.932c0.314,1.144,0.846,2.188,1.298,3.272c-2.735-0.579-6.592,0.852-8.619,1.646
							c-2.167,0.848-4.331,1.685-6.281,2.983c-1.39,0.926-2.409,2.103-3.313,3.419c-0.095-0.472-0.182-0.946-0.294-1.42
							C69.043,107.084,68.488,105.165,68.236,105.684z"/>
						<path style="fill:#27AAE1;" d="M81.928,108.225c-2.023,1.049-4.138,1.862-6.351,2.407c-1.003,0.246-4.608,1.207-5.773,0.318
							c1.996-3.263,4.587-4.946,8.091-6.387c2.339-0.96,8.38-3.623,10.63-1.313c0.138,0.144,0.291,0.189,0.44,0.179
							C88.389,105.55,83.285,107.524,81.928,108.225z"/>
						<g>
							<path style="fill:#27AAE1;" d="M88.525,103.25c-2.25-2.31-8.291,0.354-10.63,1.313c-3.504,1.44-6.095,3.124-8.091,6.387
								c1.165,0.889,4.771-0.072,5.773-0.318c2.213-0.545,4.327-1.358,6.351-2.407c1.356-0.7,6.461-2.675,7.037-4.796
								C88.816,103.439,88.663,103.394,88.525,103.25z M81.573,107.814c-1.506,0.779-3.077,1.386-4.722,1.792
								c-0.747,0.182-3.427,0.894-4.295,0.234c1.484-2.425,3.412-3.677,6.017-4.748c1.738-0.714,6.23-2.694,7.903-0.977
								c0.104,0.105,0.217,0.14,0.327,0.133C86.376,105.826,82.58,107.294,81.573,107.814z"/>
							<path style="fill:#27AAE1;" d="M78.573,105.093c-2.604,1.071-4.532,2.323-6.017,4.748c0.868,0.659,3.548-0.053,4.295-0.234
								c1.645-0.406,3.216-1.013,4.722-1.792c1.008-0.521,4.804-1.988,5.23-3.565c-0.11,0.007-0.223-0.027-0.327-0.133
								C84.803,102.398,80.311,104.379,78.573,105.093z"/>
						</g>
					</g>
					<path style="fill:#FFFFFF;" d="M48.2,40.06c-11.643,5.988-17.805,22.083-9.708,33.277c0.215,0.299,0.722-0.054,0.59-0.366
						c-2.58-6.066-3.367-12.201-1.259-18.545c1.891-5.695,5.252-11.068,10.409-14.292C48.272,40.107,48.247,40.036,48.2,40.06z"/>
					<path style="fill:#FFFFFF;" d="M42.384,77.328c-0.182-0.337-0.45-0.596-0.721-0.866c-0.284-0.285-0.497-0.623-0.757-0.926
						c-0.157-0.187-0.418-0.102-0.52,0.103c-0.499,1.014,0.754,1.59,1.284,2.253C42.01,78.309,42.613,77.755,42.384,77.328z"/>
					<path style="fill:#4B1E0A;" d="M44.792,18.571c-0.532-1.289-0.969-2.753-1.854-3.857c-0.061-0.076-0.172,0.012-0.149,0.093
						c0.015,0.102,0.031,0.202,0.049,0.303c0.004,0.046,0.06,0.024,0.062-0.012c-0.079,0.957,0.644,2.438,0.914,3.352
						c0.388,1.306,0.697,2.628,1.316,3.846c0.131,0.261,0.494,0.019,0.534-0.178C45.905,20.908,45.249,19.677,44.792,18.571z"/>
					<path style="fill:#4B1E0A;" d="M28.053,80.954c-1.788,1.027-3.498,2.22-5.153,3.451c-0.93,0.689-1.818,1.443-2.724,2.167
						c-0.559,0.446-1.099,0.921-1.651,1.375c0.044-0.083,0.093-0.178,0.154-0.293c0.013-0.024-0.02-0.032-0.032-0.014
						c-0.226,0.264-0.455,0.526-0.682,0.789c-0.056,0.046-0.028,0.153,0.054,0.116c1.918-0.913,3.62-2.181,5.398-3.339
						c1.759-1.148,3.641-2.05,4.998-3.698C28.632,81.245,28.424,80.742,28.053,80.954z"/>
					<path style="fill:#4B1E0A;" d="M109.253,37.936c-0.054-0.045-0.108-0.089-0.16-0.132c-0.016-0.019-0.048,0.004-0.041,0.024
						c-0.029-0.068-11.375,3.199-12.641,3.609c-0.249,0.081-0.335,0.51,0.005,0.474c2.446-0.265,4.747-1.1,7.071-1.862
						c1.924-0.63,3.966-1.078,5.767-2.02C109.292,38.009,109.305,37.942,109.253,37.936z"/>
					<path style="fill:#4B1E0A;" d="M80.465,9.848c-1.386,3.337-2.969,6.507-3.942,10.006c-0.127,0.459,0.502,0.494,0.67,0.143
						c1.539-3.235,2.102-6.789,3.389-10.106C80.617,9.803,80.499,9.765,80.465,9.848z"/>
					<path style="fill:#4B1E0A;" d="M18.509,40.951c-1.513-0.74-3.089-1.239-4.688-1.765c-0.796-0.262-3.407-0.703-3.869-1.56
						c-0.029-0.054-0.109,0.01-0.096,0.06c0.196,0.769,1.31,1.07,1.941,1.365c2.068,0.975,4.318,1.697,6.519,2.294
						C18.542,41.406,18.745,41.066,18.509,40.951z"/>
					<path style="fill:#4B1E0A;" d="M47.144,106.759c0.491-2.862,2.055-5.458,2.611-8.317c0.07-0.359-0.389-0.316-0.478-0.03
						c-0.889,2.872-2.138,5.666-2.329,8.703c-0.007,0.085,0.105,0.085,0.144,0.03c0.16-0.218,0.143-0.15,0.162-0.394
						C47.257,106.679,47.155,106.7,47.144,106.759z"/>
					<path style="fill:#4B1E0A;" d="M104.202,72.713c-3.744-0.666-7.642-0.28-11.392-0.732c-0.037-0.005-0.057,0.06-0.014,0.066
						c3.606,0.607,7.677,1.783,11.345,1.224C104.425,73.229,104.525,72.77,104.202,72.713z"/>
				</g>
				<path style="fill:#87D7F4;" d="M68.779,99.598c-0.337-0.436-0.379-1.055,0.217-1.448c0.394-0.262,0.79-0.521,1.189-0.781
					c-0.266-0.433-0.277-1.016,0.229-1.432c1.303-1.071,2.785-1.959,4.359-2.656c-2.036,0.732-3.989,1.653-5.532,3.11
					c-1.075,1.015-3.895,3.604-2.738,4.988c0.06-0.076,0.12-0.148,0.18-0.21C67.332,100.503,68.037,100.005,68.779,99.598z"/>
				<path style="fill:#87D7F4;" d="M83.95,87.708c-0.322-0.016-0.646-0.01-0.971-0.014c0.231,0.608,0.004,1.399-0.826,1.526
					c-4.413,0.666-8.769,1.963-12.45,4.562c-1.179,0.832-2.606-0.916-1.413-1.754c1.366-0.966,2.82-1.764,4.324-2.438
					c-0.488,0.182-0.974,0.372-1.448,0.573c-1.306,0.554-2.623,1.137-3.862,1.845c-1.675,1.463-4.267,3.581-3.439,5.624
					c0.174,0.245,0.377,0.471,0.622,0.625c0.284,0.177,0.602,0.251,0.912,0.338c0.377-0.735,0.811-1.394,1.173-1.801
					c3.542-3.957,8.323-4.617,13.314-5.283c0.107-0.017,0.082,0.123,0.003,0.15c-0.358,0.114-0.723,0.226-1.091,0.337
					c1.458-0.281,2.944-0.354,4.412-0.242c-0.545-0.194-1.086-0.399-1.544-0.776c-0.057-0.047-0.003-0.126,0.052-0.144
					c0.109-0.038,0.219-0.073,0.329-0.111c0.034-0.015,0.038,0.029,0.013,0.046c-0.188,0.115,1.33,0.135,1.166,0.149
					c0.259-0.025,0.521-0.059,0.782-0.067c0.257-0.008,0.529-0.01,0.799,0.013c0.045-0.532,0.27-1.126,0.34-1.523
					C85.282,88.562,84.638,88.048,83.95,87.708z"/>
				<path style="fill:#87D7F4;" d="M84.712,94.011c-2.008,1.153-4.243,1.563-6.468,2.111c-1.495,0.368-2.855,0.918-4.163,1.585
					c0.491-0.154,0.98-0.314,1.467-0.502c0.079-0.028,0.089,0.07,0.03,0.105c-1.717,1.065-3.591,1.84-5.315,2.886
					c-1.085,0.659-2.328,1.49-2.839,2.714c-0.532,0.638-0.452,1.137,0.24,1.5c0.249,0.106,0.255,0.138,0.019,0.087
					c0.603,0.044,0.787,0.706,0.553,1.187c0.252-0.519,0.808,1.4,0.908,1.825c0.112,0.474,0.199,0.948,0.294,1.42
					c0.904-1.315,1.924-2.493,3.313-3.419c1.95-1.299,4.114-2.136,6.281-2.983c2.027-0.794,5.884-2.225,8.619-1.646
					c-0.452-1.085-0.983-2.129-1.298-3.272c-0.021-0.022-0.044-0.046-0.065-0.069c-0.103,0.194-0.276,0.359-0.528,0.457
					c-4.797,1.88-9.619,3.693-14.28,5.902c-1.17,0.554-2.021-1.02-1.262-1.81c-0.208-0.416-0.181-0.94,0.293-1.317
					c3.268-2.6,9.379-6.188,13.973-5.226c0.529-0.056,1.064-0.063,1.556,0.011c0.018-0.143,0.029-0.285,0.021-0.425
					c-0.044-0.737-0.246-1.508-0.697-2.106c-0.008-0.011-0.017-0.018-0.025-0.028C85.323,93.382,85.127,93.773,84.712,94.011z"/>
				<g>
					<path style="fill:#FFD41E;" d="M83.67,62.279c-5.019,7.27-9.727,0.398-7.013-7.091c2.716-7.488,1.264-14.896-3.06-14.308
						c-4.322,0.588-7.336,11.351-8.82,8.849c-1.486-2.504-2.534-8.183-4.039-3.519c-1.505,4.665-1.445,10.865-4.858,5.333
						c-3.414-5.531-3.228,3.634-6.746,1.105c-3.52-2.53-1.243,7.728-5.637,6.415c-4.396-1.309-5.946,5.99,2.115,12.193
						c8.062,6.204,12.88,15.208-2.659,8.557c-4.993-2.401-8.07-5.689-9.883-9.268c0.334,0.82,0.724,1.634,1.18,2.438
						c3.566,6.279,9.269,9.514,15.858,11.977c3.201,1.198,6.76,2.281,9.577,4.281c1.953,1.384,2.874,3.014,3.636,5.084
						c0.633-1.016,1.484-1.75,2.45-2.357c0.668-0.539,1.382-1.034,2.127-1.479c-2.351-5.789-5.19-11.542-9.039-16.483
						c-1.972-2.532-4.022-5.061-6.268-7.365c0.351,1.428,0.584,2.851,0.591,4.258c0.017,2.338-2.23,1.952-3.63,1.095
						c-2.879-1.769-5.447-5.173-6.885-8.209c-0.728-1.536-0.881-3.693,1.513-3.301c2.959,0.482,5.165,2.092,7.187,4.063
						c-0.288-1.033-0.553-1.866-0.659-2.221c-0.864-2.873-1.463-5.877-2.67-8.631c-0.051-0.115,0.133-0.233,0.215-0.134
						c1.309,1.614,2.814,3.125,3.996,4.835c0.523,0.754,1.023,1.521,1.564,2.253c-0.272-1.105-0.612-2.216-0.759-3.257
						c-0.145-1.049-0.533-2.536,0.022-3.518c0.103-0.181,0.329-0.278,0.481-0.097c1.853,2.203,3.613,4.49,5.479,6.683
						c0.757,0.894,3.09,4.456,2.695,1.026c-0.305-2.639-0.66-5.324-0.66-7.984c0-1.911-0.199-4.162,0.52-5.964
						c0.08-0.204,0.365-0.242,0.452-0.033c1.088,2.609,2.585,5.05,4.31,7.28c1.087,1.407,2.398,3.317,4.05,1.175
						c0.053-0.069,0.102-0.139,0.153-0.206c-0.149-2.904-0.006-5.785,0.775-8.505c0.259-0.897,0.61-3.318,1.798-3.689
						c0.906-0.284,1.44,0.354,1.729,1.185c1.445,4.201-0.826,8.827-3.284,12.161c-0.124,0.172-0.261,0.345-0.408,0.517
						c0.402,4.465,1.278,8.945,1.998,13.299c0.893,5.393,1.925,10.736,3.139,16.062c0.041,0.035,0.072,0.079,0.098,0.142
						c0.006,0.017,0.003,0.025,0.009,0.039c1.249-0.304,2.514-0.534,3.789-0.66c1.103-0.109,2.521-0.426,3.716-0.238
						c-0.741-1.778-1.181-3.651-1.003-5.622c0.663-7.369,5.47-13.629,5.61-21.099c0.133-7.084-1.554-15.386-6.244-20.956
						c-4.977-5.905-12.269-7.697-19.565-6.913C83.959,31.234,88.674,55.033,83.67,62.279z"/>
				</g>
				<path style="fill:#FFD41E;" d="M52.277,65.468c-0.839-2.906-2.068-5.799-2.846-8.533c-0.214-0.753-0.722-2.063-0.925-2.419
					c0.768,1.339,1.601,2.638,2.371,3.975c1.097,1.914,2.078,3.854,3.565,5.499c0.534,0.591,1.345-0.332,1.363-0.856
					c0.032-1.004-0.337-1.855-0.598-2.819c-0.341-1.258-0.503-2.616-1.009-3.815c-0.217-0.515-0.446-1.013-0.633-1.538
					c-0.256-0.713,1.623,1.428,1.841,1.688c1.121,1.338,2.162,2.744,3.218,4.138c0.872,1.148,2.64,4.756,3.666,1.87
					c0.258-0.731-0.051-1.806-0.148-2.548c-0.211-1.623-0.353-3.254-0.452-4.887c-0.104-1.687-0.149-3.333-0.046-5.021
					c0.026-0.453-0.177-2.88,0.334-1c0.207,0.767,0.484,1.504,0.765,2.246c0.981,2.604,2.38,4.896,4.345,6.867
					c1.256,1.259,2.603,0.596,3.628-0.41c0.3,3.191,0.846,6.376,1.197,9.381c0.781,6.712,1.911,13.369,3.661,19.899
					c-1.186,0.331-2.356,0.725-3.489,1.214c-1.341,0.577-2.739,1.236-4.062,2.017c-3.235-9.083-8.182-16.741-14.717-23.849
					C52.965,66.194,52.623,65.829,52.277,65.468z"/>
				<path style="fill:#FFD41E;" d="M52.526,85.791c0,0,12.7,3.738,8.375-8.088c-3.414-8.098-0.929-4.772,1.502,0.052
					c2.432,4.824,10.71,6.158,10.094-7.621c-0.757-6.444,0.971-1.354,2.241,3.662c1.271,5.016,6.385,2.536,11.442-4.859
					c-2.097,5.419-4.252,13.167-2.265,17.128c-8.922,0.227-18.97,5.353-20.889,8.701C61.98,89.764,56.902,87.909,52.526,85.791z"/>
				<path style="fill:#FFFFFF;" d="M72.249,90.832c0,0,3.923-1.99,8.274-2.34c4.348-0.348,0.28-1.134-4.198,0.014
					C71.848,89.654,70.792,91.123,72.249,90.832z"/>
				<path style="fill:#FFFFFF;" d="M72.959,95.175c0,0,3.924-1.992,8.274-2.341c4.349-0.349,0.28-1.135-4.196,0.014
					C72.559,93.995,71.503,95.464,72.959,95.175z"/>
				<path style="fill:#FFFFFF;" d="M73.723,99.845c0,0,3.926-1.992,8.275-2.341c4.348-0.349,0.279-1.135-4.198,0.013
					C73.325,98.666,72.267,100.135,73.723,99.845z"/>
			</g>
		</g>
		<g>
			<ellipse style="opacity:0.3;fill:#FE0000;" cx="133.227" cy="166.061" rx="7.125" ry="4.25"/>
			<path style="fill:#4B1E0A;" d="M131.691,162.975c-1.244,0.608-2.201,1.637-3.224,2.546c-0.215,0.191-0.031,0.548,0.222,0.347
				c1.057-0.838,2.094-1.673,3.202-2.441C132.13,163.26,131.993,162.826,131.691,162.975z"/>
			<path style="fill:#4B1E0A;" d="M135.822,162.738c-1.874,0.27-3.152,1.783-4.581,2.873c-0.349,0.267-0.062,0.777,0.332,0.519
				c0.642-0.424,1.253-0.905,1.876-1.358c0.774-0.564,1.629-0.973,2.456-1.449C136.161,163.175,136.223,162.68,135.822,162.738z"/>
			<g>
				<path style="fill:#E1B39B;" d="M127.554,161.717c1.131-1.641,3.84-1.547,5.602-1.483c2.576,0.092,4.07,1.26,6.248,2.441
					c0.193,0.103,0.191,0.528-0.083,0.43c-1.821-0.64-3.391-1.439-5.365-1.497c-2.097-0.063-3.757,0.291-5.647,1.145
					C127.765,162.998,127.255,162.146,127.554,161.717z"/>
				<path style="fill:#E1B39B;" d="M125.88,162.824c-0.02,0.378-0.342,0.667-0.721,0.65c-0.376-0.02-0.666-0.34-0.648-0.72
					c0.02-0.378,0.342-0.667,0.718-0.649C125.607,162.127,125.898,162.446,125.88,162.824z"/>
			</g>
		</g>
		<g>
			<path style="opacity:0.3;fill:#FE0000;" d="M182.742,163.081c0.377,2.317,3.831,3.683,7.715,3.052
				c3.884-0.632,6.727-3.021,6.351-5.339c-0.377-2.317-3.831-3.683-7.715-3.051C185.209,158.374,182.365,160.764,182.742,163.081z"
				/>
			<path style="fill:#4B1E0A;" d="M190.796,158.645c1.325,0.4,2.436,1.262,3.59,1.995c0.243,0.153,0.119,0.536-0.163,0.378
				c-1.177-0.657-2.335-1.316-3.552-1.896C190.408,158.997,190.474,158.547,190.796,158.645z"/>
			<path style="fill:#4B1E0A;" d="M186.681,159.075c1.893-0.035,3.397,1.254,4.982,2.101c0.387,0.207,0.186,0.757-0.244,0.564
				c-0.701-0.315-1.382-0.692-2.07-1.039c-0.855-0.433-1.764-0.699-2.656-1.036C186.416,159.561,186.275,159.082,186.681,159.075z"
				/>
			<g>
				<path style="fill:#E1B39B;" d="M194.677,156.739c-1.379-1.438-4.038-0.91-5.767-0.564c-2.528,0.504-3.815,1.896-5.775,3.412
					c-0.175,0.133-0.105,0.553,0.151,0.411c1.694-0.924,3.115-1.964,5.055-2.339c2.06-0.399,3.755-0.315,5.758,0.225
					C194.675,158.038,195.041,157.116,194.677,156.739z"/>
				<path style="fill:#E1B39B;" d="M196.507,157.564c0.08,0.369,0.444,0.604,0.815,0.526c0.368-0.08,0.604-0.442,0.524-0.815
					c-0.079-0.369-0.444-0.603-0.813-0.525C196.665,156.832,196.429,157.194,196.507,157.564z"/>
			</g>
		</g>
		<g>
			<path style="fill:#FED1B4;" d="M213.698,152.953c-0.655,0.757-1.454,1.12-2.433,0.851c-2.4-0.66-2.313-4.904-2.732-6.71
				c-0.985-4.253-2.352-8.367-3.695-12.515c-1.254-3.865-2.701-7.684-5.038-11.043c-1.692-2.432-3.761-4.84-4.819-7.643
				c-0.408,2.13-1.061,4.362-2.527,5.715c-2.184,2.012-4.017-2.386-4.62-3.732c-0.929-2.074-1.742-4.211-2.7-6.269
				c-0.166-0.356-0.309-0.727-0.423-1.103c-1.267,4.352-3.209,8.826-5.252,7.209c-1.742-1.377-1.914-4.963-2.363-6.921
				c-0.268-1.173-0.515-2.358-0.703-3.55c-2.812,3.207-5.841,6.307-9.234,8.879c-2.391,1.811-5.364,4.207-8.547,4.049
				c-2.765-0.137-2.843-2.694-1.943-5.674c-3.64,3.333-7.427,6.512-11.66,9.072c-2.598,1.57-7.872,5.207-11.191,3.826
				c-3.116-1.297-2.166-5.234-1.098-7.843c-2.61,2.462-8.174,7.735-12.293,9.63c-1.51,9.007,0.299,18.603-2.347,27.39
				c-2.181,7.245-6.36,13.634-5.249,21.55c0.89,6.354,4.577,12.364,9.351,16.57c9.787,8.624,23.751,13.121,36.652,13.584
				c7.54,0.27,15.3-0.801,22.286-3.756c6.838-2.893,13.193-7.193,18.837-11.994c5.551-4.723,10.93-10.418,13.135-17.541
				C215.329,167.743,214.302,160.35,213.698,152.953z M153.483,205.126c-42.209-9.684-38.653-32.674-33.775-43.455
				c4.878-10.781,4.106-25.157,4.106-25.157c-0.257-7.444,6.161-10.525,6.161-7.188c0,3.338,16.172-2.054,20.793-6.418
				c4.621-4.364,5.904,3.594,10.012,1.027c4.107-2.566,13.349-11.552,15.146-7.188c1.797,4.363,4.621,9.241,7.188,4.107
				c2.566-5.134,8.472,9.241,10.012,5.647c1.54-3.594,12.836,6.932,14.376,34.912C209.041,189.395,175.413,208.648,153.483,205.126z
				"/>
		</g>
		<path style="fill:#FED1B4;" d="M150.512,166.292c0,0,4.107,6.419,13.349,0.77c4.364-2.567,2.567,6.675-5.391,7.701
			S149.229,167.832,150.512,166.292z"/>
		<path style="fill:#E1B39B;" d="M157.889,164.01c0,0.939-1.156,1.701-2.584,1.701c-1.427,0-2.583-0.762-2.583-1.701
			c0-0.939,1.156-1.701,2.583-1.701C156.733,162.309,157.889,163.07,157.889,164.01z"/>
		<path style="fill:#E1B39B;" d="M161.543,164.829c0,0.538-0.662,0.975-1.48,0.975c-0.818,0-1.48-0.436-1.48-0.975
			s0.662-0.975,1.48-0.975C160.881,163.855,161.543,164.291,161.543,164.829z"/>
		<path style="fill:#E1B39B;" d="M156.277,152.961c0,0,0.63,3.15-0.378,5.923c-1.008,2.772,2.017,1.891,2.017-3.024
			C157.915,150.944,156.403,149.433,156.277,152.961z"/>
		<path style="fill:#F04E64;" d="M172.507,190.961c0.393,2.047-3.2,4.458-8.025,5.384c-4.824,0.926-9.055,0.016-9.447-2.031
			c-0.394-2.049,3.199-4.46,8.025-5.386C167.884,188.002,172.115,188.912,172.507,190.961z"/>
		<path style="fill:#F04E64;" d="M164.344,190.3c0.057,0.553-0.792,1.09-1.895,1.202c-1.104,0.112-2.043-0.244-2.1-0.796
			c-0.056-0.552,0.793-1.09,1.896-1.202C163.349,189.393,164.288,189.748,164.344,190.3z"/>
		<path style="fill:#F04E64;" d="M167.402,189.835c0.028,0.275-0.396,0.545-0.947,0.601c-0.552,0.056-1.021-0.122-1.049-0.398
			c-0.028-0.275,0.395-0.545,0.947-0.601C166.905,189.381,167.374,189.559,167.402,189.835z"/>
		<g>
			<path style="fill:#CACBCC;" d="M176.89,174.948c-5.263,2.32-10.904,4.05-16.492,5.229c-2.778,0.585-9.2,1.945-15.016,1.936
				c1.033,1.124,2.195,1.873,3.435,2.371c-0.026-0.78,0.373-1.463,1.778-1.594c3.584-0.333,13-2.167,17.667-3.75
				c2.093-0.71,2.521,0.258,2.363,1.54C172.9,179.148,174.867,177.2,176.89,174.948z"/>
		</g>
		<g style="opacity:0.5;">
			<path style="fill:none;" d="M129.747,88.525c0.123-0.077,0.244-0.16,0.367-0.237C130.114,88.288,129.979,88.372,129.747,88.525z"
				/>
			<path style="fill:#DB9C28;" d="M236.92,140.622c-1.56-4.986-3.936-9.898-7.347-13.868c-0.024-0.028,0.023-0.075,0.051-0.048
				c2.159,2.116,4.542,3.941,5.925,6.703c0.152,0.303,0.307,0.607,0.462,0.912c0.053-3.268,0.463-6.473-0.443-9.75
				c-0.384-1.385-0.781-2.764-1.19-4.138c-1.248,2.728-4.021,2.496-6.446-1.627c-5-8.5-9.25-12.75-4.25,2.75s-3,18.25-5.75,7.25
				s-10.25-25-7.75-14.5s2.25,25-3,12.25s-12.25-28.75-12.25-28.75s-3.75,12.5-5.75,12s-5.5-13.75-5.5-13.75s-2,13.25-4.75,11.5
				s0-11,0-11s-12.751,18.75-16.501,15.5s3.5-16,0-11.5c-7.5,9.75-22.5,24.75-23.5,17.5s8-16.5,4.25-14
				c-9.25,6.75-21.75,25.75-22,17.5s15.25-24.25,7.75-20s-14.75,11.5-12.25,2.5c2.229-8.024,11.156-14.271,13.066-15.531
				c-4.416,2.779-8.719,5.813-12.501,9.421c-1.934,1.846-4.022,3.809-5.466,6.074c-0.965,1.516-1.647,3.155-2.396,4.772
				c1.492-0.208,2.977-0.495,4.491-0.853c0.049-0.012,0.046,0.058,0.007,0.07c-1.628,0.585-3.192,1.017-4.759,1.326
				c-0.002,0.004-0.004,0.009-0.007,0.014c-1.139,0.178-2.298,0.263-3.485,0.238c-0.167-0.004-0.308,0.107-0.402,0.251
				c-1.116,0.073-2.259,0.097-3.454,0.063c-1.243-0.034-3.644,0.189-2.222,2.025c0.553,0.715,1.197,1.379,1.958,1.877
				c1.433,0.937,3.037,1.513,4.545,2.31c0.583-0.454,1.181-0.889,1.806-1.275c1.411-0.872,3.09-1.271,4.424-2.242
				c0.053-0.039,0.083,0.045,0.045,0.08c-1.776,1.691-4.044,2.762-5.865,4.435c-2.292,2.105-4.512,4.516-5.52,7.524
				c-0.483,1.439-0.785,2.885-1.029,4.378c-0.262,1.605,0.068,2.45,1.658,1.456c1.069-0.667,2.134-1.416,3.331-1.84
				c0.088-0.031,0.159-0.026,0.22-0.007c0.642-2.633,1.896-5.132,3.921-7.368c0.059-0.064,0.144,0.021,0.095,0.088
				c-3.928,5.318-3.44,11.598-1.934,17.656c0.368,1.481,0.888,3.119,1.743,4.393c1.231,1.83,2.264,0.77,3.104-1.003
				c0.618-1.306,1.251-2.69,1.528-4.118c0.082-0.422,0.755-0.706,0.839-0.136c0.312,2.113,0.879,3.944,2.187,5.663
				c0.191,0.248,0.953,1.371,1.526,1.813c0.025-0.033,0.044-0.07,0.075-0.1c0.097-2.821,0.135-5.653,0.311-8.48
				c0.156-2.5,0.443-5.013,0.95-7.467c-1.846,0.628-3.28,0.373-3.812-1.463c-0.912-3.156,0.42-7.137,1.812-9.934
				c1.608-3.23,3.453-6.609,6.403-8.795c0.026-0.02,0.044,0.021,0.024,0.04c-2.61,2.34-4.252,5.777-5.465,9.019
				c-0.98,2.621-2.028,5.74-1.456,8.582c0.284,1.414,1.462,1.428,2.891,0.838c0.031-0.122,0.067-0.243,0.101-0.365
				c0.302-0.041,0.589-0.125,0.859-0.248c-0.014,0.059-0.032,0.114-0.046,0.172c2.211-1.182,4.682-3.306,5.396-3.866
				c2.382-1.871,4.79-3.706,7.232-5.497c1.77-3.613,4.286-6.881,7.277-9.564c0.032-0.029,0.075,0.01,0.047,0.043
				c-2.366,2.816-4.382,5.857-5.835,9.256c-0.749,1.749-1.468,3.606-1.601,5.523c-0.234,3.371,3.028,2.654,4.796,1.982
				c6.954-2.645,13.069-7.476,18.956-11.938c1.253-3.421,3.466-7.057,4.246-8.109c0.034-0.047,0.096-0.008,0.065,0.043
				c-1.447,2.395-2.408,5.47-3.126,8.173c-0.348,1.306-1.749,5.509,1.11,5.177c1.539-0.178,3.029-0.951,4.309-1.79
				c4.647-3.047,8.457-7.089,12.575-10.776c-0.043-0.356-0.071-0.714-0.098-1.072c0.471,1.907,1.137,3.781,1.52,5.363
				c0.28,1.154,0.64,5.577,2.395,5.012c0.709,1.005,1.76-1.409,2.081-2.201c0.738-1.262,1.264-2.765,1.709-4.211
				c0.771-1.227,1.524-2.475,2.135-3.771c-0.201,1.123-0.539,2.68-0.984,4.329c0.364,0.631,0.876,1.177,1.338,1.74
				c0.74,0.9,1.273,2.271,1.798,3.313c0.624,1.234,1.217,2.482,1.844,3.711c0.652,1.275,1.831,2.26,2.472,0.389
				c0.333-0.973,0.589-1.961,0.814-2.955c0.967-2.063,0.934-4.453,1.335-6.708c0.342-1.916,0.712-3.829,0.842-5.743
				c0.44,3.322,0.501,6.702-0.018,10.019c-0.109,0.701-0.224,1.481-0.368,2.279c4.016,3.986,7.825,8.492,9.913,13.805
				c2.229,5.677,4.546,11.949,5.361,18.021c0.126,0.93,0.175,2.029,0.503,2.906c0.455,1.213,1.863,1.418,2.341,0.106
				c0.513-1.409,0.924-2.847,1.171-4.327c0.439-2.648,0.654-5.322,0.717-8.006c0.144-6.317-0.964-12.488-2.229-18.656
				c3.646,4.885,3.123,12.281,3.909,18.019c0.009,0.064,0.03,0.111,0.053,0.154c-0.015,0.927-0.053,1.859-0.113,2.8
				c-0.048,0.745-0.153,2.497-0.419,4.5c0.4-0.457,0.846-0.854,1.328-1.163c2.616-1.673,5.1-0.302,6.012,2.52
				c2.061,6.375-0.229,16.316-8.286,16.506c-0.01,0.001-0.013-0.008-0.021-0.01c0.13,3.348-0.054,6.691-0.797,9.9
				c-0.528,2.281-1.296,4.463-2.267,6.545c1.279,0.616,3.862-0.886,5.034-1.513c1.194-0.639,2.316-1.366,3.4-2.178
				c2.821-2.116,5.196-5.1,7.04-8.099c1.691-2.75,3.329-5.841,4.389-8.902c1.267-3.661,0.916-7.58-0.507-11.152
				c-0.078-0.199,0.025-0.439,0.189-0.586c0.6,0.524,1.142,1.102,1.646,1.714c1.36,2.52,2.015,5.481,2.426,8.289
				c0.97-2.21,1.19-4.692,1.35-7.087C237.385,146.725,237.814,143.478,236.92,140.622z"/>
		</g>
		<g style="opacity:0.5;">
			<path style="fill:#DB9C28;" d="M133.764,93.14c-6.334,11,9,5.334,16.333,0.667c7.333-4.667,7.666,11,18.333,0.333
				c10.667-10.667,12.001,5,16.001,0s8.666,6.333,15,13.333c5.005,5.531,17.082,0.656,27.029-4.758
				c-0.243-0.323-0.487-0.646-0.747-0.96c-1.244-1.504-2.632-3.088-4.403-3.985c-1.604-0.812-3.716-2.065-5.513-2.252
				c-0.172-0.019-0.142-0.257,0.006-0.296c0.109-0.029,0.218-0.059,0.328-0.088c0.04-0.011,0.045,0.039,0.024,0.063
				c0.474-0.514,1.373-0.55,2.43-0.316c0.459-0.557,0.975-0.996,1.609-1.434c0.25-0.173,3.223-1.828,1.237-1.814
				c-2.779,0.021-4.341,1.348-6.495,2.858c-0.398,0.278-0.98,0.021-1.011-0.47c-0.122-1.928,0.087-3.826-0.698-5.658
				c-0.914-2.135-0.839,0.68-1.039,1.572c-0.15,0.666-0.393,1.492-0.703,2.346c-0.717,1.259-1.293,2.578-2.45,3.33
				c0.312-0.567,0.662-1.322,0.688-1.404c0.11-0.349,0.225-0.694,0.341-1.041c-0.878-2.94-2.667-5.452-4.947-7.569
				c-0.98,1.48-1.689,3.419-2.018,5.878c-2,15-7,2.666-9.334-5c-2.334-7.666-20.333,5-15.666-4c4.667-9-24.335,14.666-16.335,4.333
				c8-10.333,0.334-7-8-1c-8.334,6-15.333,7.333-6.583-0.75c2.928-2.705,2.366-4.005-0.034-4.457
				c-5.976,1.867-11.745,4.385-17.032,7.688c-0.122,0.076-0.24,0.157-0.362,0.234C133.658,88.335,135.906,89.42,133.764,93.14z"/>
		</g>
		<g style="opacity:0.6;">
			<path style="fill:#00A79D;" d="M184.63,246.257c-2.342-13.135-6.731-25.86-11.333-38.375c0.074,1.256,0.074,2.49,0.011,3.613
				c-0.307,5.476-4.241,13.343-11.063,11.012c-5.639-1.927-6.368-7.234-6.458-12.533c-0.135,1.566-0.492,3.16-0.744,4.562
				c-0.645,3.591-1.365,7.167-1.826,10.788c-0.989,7.761-1.176,15.609-0.767,23.418c0.261,4.982,0.614,9.95,1.224,14.891
				c0.017,0.002,0.037-0.004,0.042,0.018c0.706,2.836,4.039,3.488,6.554,3.725c2.777,0.261,5.733,0.651,8.508,0.355
				c3.535-0.376,6.823-1.497,10.055-2.947c3.203-1.436,5.456-3.185,7.843-5.643C186.078,254.833,185.393,250.538,184.63,246.257z
				 M169.18,264.807c-14.75,1.25-13.5-3.25-13.75-8.5c0,0,0.25-32.25,3.75-30s11,1.75,13-3.25c2.001-5,4.501,2.25,7.001,13.75
				s1.25,18.5-7.751,21.75c-7,2.5-1.25,3,6.251-0.75C185.181,254.057,183.931,263.557,169.18,264.807z"/>
		</g>
		<path style="fill:#00A79D;" d="M159.571,239.581c0,0-0.719,12.04-0.359,16.892c0.359,4.852-1.438,1.616-1.258-7.368
			C158.133,240.12,159.391,236.886,159.571,239.581z"/>
		<g style="opacity:0.5;">
			<path style="fill:#1C75BC;" d="M187.806,315.682c-1.625-5.125-3.375-12.875-1.25-9.625s3.75,1.75,2-5.125s6.875-5.375,9.875-7.5
				c0.337-0.238,0.624-0.313,0.873-0.269c0.189-1.188,0.412-2.371,0.787-3.513c-1.514,0.693-3.063,1.303-4.618,1.826
				c-0.917,0.309-6.364,2.936-6.725,0.885c-0.066,0.205-0.129,0.413-0.207,0.615c-0.062,0.158-0.326,0.129-0.279-0.06
				c0.875-3.51,0.65-7.464,0.537-11.056c-0.119-3.781-0.42-7.494-0.774-11.257c-0.325-3.453-0.739-6.895-1.201-10.328
				c-1.369,2.629-4.276,4.613-6.84,5.797c-3.84,1.773-7.943,3.392-12.235,3.455c-4.113,0.061-12.402-0.009-13.939-4.878
				c0.329,2.512,0.721,5.017,1.213,7.51c1.38,6.999,3.205,13.891,5.087,20.77c0.492,1.133,1.125,2.115,2.013,2.674
				c1.437,0.904,1.31,2.161,0.078,3.328c-0.779,0.739-2.526,0.8-3.497,0.896c-1.65,0.166-3.358,0.37-5.02,0.236
				c-2.895-0.235-5.738-0.309-8.542-1.172c0.62,1.047,1.2,2.119,1.944,3.096c0.391,0.511,0.792,1.013,1.193,1.516
				c-0.961-2.857,1.021-1.157,5.788-1.071c6.177,0.111,7.125,0.426,9.179,6.983c2.054,6.557,3.475,14.06,0.553,15.008
				c-2.763,0.896-6.44-3.43-10.105-7.508c0.923,1.302,1.827,2.599,2.621,3.996c0.888,1.561,1.695,3.235,2.811,4.651
				c1.505,1.912,3.828,2.258,5.968,1.172c1.392-0.707,2.908-1.742,3.399-3.25c0.197,0.028,0.448-0.087,0.541-0.323
				c0.016-0.04,0.025-0.08,0.038-0.12h0.001v-0.003c0.398-1.126,0.222-2.239-0.29-3.291c-0.693-4.183-1.694-8.308-2.184-12.524
				c-0.466-4.006-0.15-8.08-0.134-12.111c0.258-1.825,0.608-3.609,1.07-5.321c0.752-2.783,1.688-5.716,3.994-7.614
				c-0.53,0.334-1.048,0.693-1.509,1.105c0.099-0.045-2.176,2.331-1.383,1.615c0.036-0.033,0.078,0.019,0.047,0.053
				c-0.078,0.087-0.157,0.174-0.235,0.262c-0.047,0.051-0.121,0.016-0.093-0.053c1.035-2.528,3.855-4.286,6.745-5.368
				c1.442-0.754,2.986-1.263,4.634-1.193c0.393,0.017,0.245,0.616-0.073,0.655c-1.229,0.145-2.464,0.41-3.663,0.793
				c-0.373,0.158-0.739,0.344-1.101,0.542c3.424,0.386,7.075,7.093,8.179,9.651c0.678,1.57,3.288,5.52,1.224,6.857
				c-1.644,1.064,0.014,2.656,0.732,3.746c0.232,0.351,0.463,0.699,0.692,1.049c0.282,1.129,0.671,2.236,1.121,3.312
				c-1.134-1.562-2.313-3.161-3.331-4.816c-0.377,0.641-0.355,3.393-0.344,3.804c0.029,1.145,0.105,2.284,0.253,3.421
				c0.309,2.359,0.782,4.713,1.302,7.037c0.393,1.758,0.824,4.033,2.393,5.163c1.361,0.982,4.166,1.999,5.242-0.297
				c0.444-0.95,0.732-1.933,0.942-2.959C191.319,319.229,189.116,319.814,187.806,315.682z M182.806,274.932
				c-4,1.25-15.751,5.625-17.876,12.875s-5-1.375-6-7.125s-1.875-9.25,1-9c0,0,11.5,1.5,18.876-2.75
				C186.181,264.682,186.806,273.682,182.806,274.932z"/>
		</g>
		<path style="fill:none;" d="M98.949,250.98c-0.603-0.558-1.186-1.106-1.747-1.632C97.783,249.936,98.365,250.475,98.949,250.98z"
			/>
		<g>
			<path style="fill:#C3E0FF;" d="M160.384,295.762c-0.456-0.785-0.84-1.596-1.099-2.471c-0.474-1.602-0.787-3.238-1.132-4.87
				c-3.915-12.516-6.438-25.258-7.125-38.446c-0.031-0.597-0.054-1.194-0.079-1.79c-2.604-8.58-4.678-17.439-6.094-26.262
				c-0.589-3.668-0.207-6.863,2.053-9.88c1.253-1.673,2.636-3.241,4.151-4.683c0.129-0.123,0.263-0.238,0.392-0.361
				c-0.965,0.108-2.349,0.549-2.607,0.663c-0.061,0.026-0.136,0.058-0.218,0.089c-0.315,0.661-0.749,1.336-1.062,1.984
				c-0.088,0.182-0.371,0.158-0.331-0.07c0.207-1.209,0.937-3.6-1.185-3.584c-1.558,0.012-3.273,0.279-4.618,1.086
				c-3.168,1.9-5.592,4.426-7.902,7.277c-4.019,4.955-8.222,9.831-13.659,13.271c0.233,1.415,0.16,2.965,0.13,4.113
				c-0.094,3.577-0.673,7.029-1.007,10.58c-0.009,0.096-0.167,0.158-0.168,0.035c-0.038-3.248,0.039-6.501,0.017-9.751
				c-0.011-1.581-0.182-2.982-0.466-4.379c-0.347,2.852-1.792,5.162-3.184,7.771c-0.144,0.27-0.514,0.157-0.4-0.151
				c1.382-3.773,2.757-6.834,2.206-10.959c-0.505-3.782-2.631-7.41-4.678-10.558c-2.075-3.191-4.121-6.357-6.077-9.577
				c-1.283-1.73-2.439-3.668-3.364-5.662c-0.316-0.416-0.581-0.902-0.942-1.234c-0.076,0.375-0.135,0.754-0.146,1.133
				c-0.001,0.029,0,0.061-0.001,0.09c0.264,1.428,0.466,2.861,0.38,4.389c-0.109,1.939-0.716,4.092-1.724,5.766
				c-2.348,3.898-5.332,7.383-9.095,9.99c-3.359,2.328-7.305,4.438-11.545,3.942c-1.975-0.23-5.215-0.81-7.18-2.295
				c1.289,2.06,2.947,3.907,4.516,5.752c2.127,2.503,4.197,5.05,6.254,7.61c1.024,1.275,2.066,2.531,3.124,3.772
				c-1.869-2.654-5.515-8.855,0.079-10.287c7.167-1.834,13.666-5.5,16.333-10.5s13.667,8.667,10.167,20.5
				c-2,5.666,1.834,0.499,3.167-1.334c1.333-1.833,0.499,3.167,1.166,7.167s3.999,1.5,5.333-8.833
				c1.334-10.333,5.334-11.333,6.667-1c1.333,10.333,1.667,16.333-6.333,20c-7.471,3.424-15.921,4.297-24.148-2.827
				c4.407,4.083,9.872,8.669,15.924,8.473c3.656-0.118,7.01-1.422,10.303-2.917c2.5-1.136,5.655-2.444,7.513-4.604
				c-0.058-3.355,0.157-6.705,0.547-10.039c-1.178-2.262-1.076-4.861-0.947-7.353c0.138-2.652,0.426-5.208,1.599-7.62
				c0.012-0.024,0.057-0.021,0.045,0.01c-1.328,3.771-0.873,8.277-0.355,12.372c0.097-0.669,0.185-1.34,0.295-2.007
				c0.438-2.648,0.842-5.512,1.923-7.992c1.053-2.416,2.624-4.561,3.315-7.129c0.016-0.058,0.109-0.064,0.096,0.008
				c-0.404,2.109-1.403,3.916-2.178,5.898c-1.035,2.65-1.459,5.572-1.837,8.382c-0.775,5.77-1.353,11.623-0.963,17.444
				c0.068,1.026,0.144,2.053,0.226,3.079c0.184-2.456,1.531-18.694,5.227-21.928c4-3.5,5.75,19,9.25,34.5
				c3.289,14.568-7.995,15.882-12.893,1.043c0.376,2.373,0.805,4.736,1.313,7.084c0.108,1.453,0.198,2.912,0.333,4.363
				c-1.218-3.867-2.219-7.828-2.982-11.84c-0.356,3.967-0.699,7.938-1.201,11.887c0.747-0.784,2.099-0.942,4.431,2.213
				c4.25,5.75,9.5-2.75,13.75,3c3.585,4.85-2.792,10.59-9.677,8.516c0.518,0.273,1.054,0.525,1.616,0.744
				c5.023,1.957,11.876,2.791,17.13,1.342C162.516,297.421,160.753,296.396,160.384,295.762z"/>
		</g>
		<g>
			<path style="fill:#C3E0FF;" d="M242.395,262.749c-1.45-0.857-2.756-1.273-4.065-2.41c3.149,6.532-4.149,12.468-18.149-3.282
				s-17.5-37.75-12.75-32.5c1.59,1.758,3.459,3.793,5.243,5.727c-0.866-1.132-1.713-2.278-2.493-3.479
				c-2.309-3.55-4.39-7.235-6.749-10.755c-2.33-3.477-4.514-7.381-7.262-10.539c-1.371-1.575-3.449-3.541-5.764-2.951
				c-1.337,0.341-2.012,1.141-2.551,2.275c-0.108,0.268-0.481,1.143-0.755,1.67c0.03,0.016,0.055,0.043,0.064,0.091
				c0.01,0.052,0.02,0.103,0.029,0.153c0.044,0.234-0.345,0.465-0.404,0.19c-0.139-0.646-0.144-1.335-0.032-2.009
				c-1.651,0.689-3.574,0.966-5.331,0.792c-0.019-0.002-0.049-0.004-0.071-0.006c1.077,0.797,2.369,1.339,3.363,2.227
				c1.204,1.076,1.875,2.258,2.075,3.883c0.387,3.129,0.34,6.354,0.562,9.502c0.438,6.234,1.067,12.534,1.066,18.789
				c-0.001,2.621-0.112,5.252-0.421,7.855c-0.209,1.773-0.184,3.619-0.444,5.396c0.946,6.255,1.694,12.523,2.247,18.84
				c0.354,4.044,0.423,8.19,0.072,12.239c-0.146,1.678-0.23,3.408-0.482,5.099c0.04,0.482,0.111,0.933,0.234,1.302
				c0.141,0.023,0.266,0.113,0.334,0.32c0.388,1.164,8.507-2.537,9.677-3.098c0.618-0.296,1.237-0.607,1.854-0.93
				c-3.18-0.319-5.535-1.648-5.311-3.334c0.5-3.75,8.25-6.5,10.75-13c1.183-3.075,2.869-1.784,4.317,0.429
				c-0.109-0.347-0.231-0.695-0.382-1.046c-1.416-3.306-2.452-6.742-3.815-10.059c-0.23,3.799-0.791,7.566-1.797,11.243
				c0.251-2.376,0.308-4.766,0.11-7.145c-3.742,13.193-11.901,15.855-11.684,2.327c0.25-15.5-0.5-33.5,2-40.25s7.5,6,8.907,16.889
				c-0.692-5.229-1.434-10.536-2.79-15.642c-0.283-1.066-0.576-2.182-0.897-3.311c-0.292-0.315-0.367-0.75-0.356-1.201
				c-0.879-2.889-1.993-5.777-3.696-8.067c-0.044-0.059,0.054-0.161,0.109-0.108c1.645,1.547,2.852,3.573,3.826,5.716
				c0.059-1.384-0.088-2.759-0.478-4.106c-0.025-0.088,0.067-0.182,0.154-0.154c0.069,0.019,0.14,0.037,0.21,0.055
				c0.06,0.011,0.04,0.092-0.011,0.102c-0.046,0.008,0.5,1.492,0.561,1.785c0.145,0.689,0.263,1.381,0.3,2.087
				c0.036,0.691,0.047,1.394,0.049,2.097c0.471,1.209,0.89,2.422,1.275,3.582c1.708,5.138,2.58,10.57,3.305,15.925
				c0.076,0.562,0.146,1.127,0.216,1.691c0.76,1.593,1.428,3.28,2.232,4.784c0.999,1.872,2.043,3.728,3.184,5.517
				c2.434,3.817,5.111,7.409,8.017,10.88c1.66,1.984,3.25,4.107,5.323,5.685c1.544,1.174,3.156,2.257,4.771,3.33
				c0.66,0.699,1.891,1.343,2.316,1.537c1.094,0.498,2.483,0.034,3.703-0.697c2.519-0.9,4.822-3.499,5.863-6.272
				c0.02,0.116,0.019,0.248-0.02,0.4C242.227,267.454,243.426,263.358,242.395,262.749z"/>
		</g>
		<path style="fill:#C3E0FF;" d="M214.745,234.01c0,0,11.912,14.986,18.253,21.712c4.804,4.804-5.38-3.844-11.528-10.376
			C215.321,238.814,209.942,228.822,214.745,234.01z"/>
		<path style="fill:#C3E0FF;" d="M88.68,234.807c0,0,9.5,13.75,20.25,17.75c4.25,2-6,1.75-14.5-8S85.18,231.557,88.68,234.807z"/>
		<path style="fill:#C3E0FF;" d="M137.93,248.557c0,0-3,13,2.25,24.5c2.5,6.5-4-1.5-4.5-12.75S139.43,241.807,137.93,248.557z"/>
		<path style="fill:#C3E0FF;" d="M201.181,237.307c0,0,3,14,0.5,29.5c-0.5,4.25,2.25-0.75,2.25-11.5
			S201.431,232.807,201.181,237.307z"/>
		<path style="fill:#1C75BC;" d="M196.594,298.79c0,0-0.86,5.501-2.751,12.722c-1.891,7.221,1.921-2.673,3.195-8.642
			C198.313,296.899,197.454,294.836,196.594,298.79z"/>
		<path style="fill:#1C75BC;" d="M153.022,308.082c0,0,2.237,4.736,5.657,9.473c3.42,4.736-2.369-1.447-5-5.789
			C151.048,307.424,151.706,305.582,153.022,308.082z"/>
		<g style="opacity:0.5;">
			<path style="fill:#A97C50;" d="M172.18,344.613c-0.106-3.306-0.567-6.595-1.117-9.853c-0.376-2.235-0.987-4.367-1.602-6.501
				c-0.105-0.755-0.216-1.508-0.363-2.257c-0.04-0.194-0.181-0.228-0.328-0.186c-0.008-0.029-0.016-0.059-0.023-0.088
				c-0.035,0.053-0.081,0.1-0.119,0.15c-0.105,0.063-0.195,0.152-0.23,0.236c-0.017,0.039-0.032,0.079-0.048,0.118
				c-0.528,0.601-1.212,1.116-1.941,1.512c0.047,0.016,0.097,0.024,0.143,0.042c0.57,0.221,1.118,0.559,1.277,1.203
				c0.148,0.594,0.044,1.52-0.016,1.811c-0.198-0.328-0.425-0.65-0.685-0.938c-0.254-0.381-0.586-0.664-1.067-0.79
				c-0.209-0.089-0.427-0.159-0.663-0.179c-1.485-0.123-3.586,0.074-4.836,0.959c-0.896,0.633-1.344,1.828-1.296,2.966
				c-1.075-1.691,0.393-3.522,2.169-4.427c-0.742-0.162-1.453-0.422-1.913-0.801c-0.017,0.055-0.038,0.108-0.053,0.164
				c-0.055,0.186-0.104,0.369-0.167,0.553c-0.194,0.568-0.644,1.057-0.979,1.545c-0.05,0.071-0.092,0.147-0.141,0.219
				c-0.857,2.279-1.987,4.501-3.23,6.666c1.831-2.34,3.826-3.907,4.76-1.323c0.15-5.859,7.811-6.611,7.962-0.301
				c1.803-2.704,3.456,3.154,3.005,11.268c-0.451,8.113-9.314,10.667-15.323,8.563c-3.979-1.393-7.912-3.661-7.095-7.453
				c-0.5,0.938-0.916,1.925-1.096,2.943c0.104,0.742,0.391,1.453,0.96,2.131c0.759,0.903,1.571,1.858,2.534,2.56
				c2.242,1.633,5.128,2.455,7.897,2.297c4.515-0.26,9.358-1.488,12.543-4.785C172.044,350.092,172.267,347.323,172.18,344.613z"/>
		</g>
		<path style="fill:#A97C50;" d="M157.056,337.607c0,0-6.655,7.671-4.851,12.295c1.805,4.624-3.722,0.338-1.015-5.076
			C153.898,339.412,159.425,334.111,157.056,337.607z"/>
		<path style="fill:#A97C50;" d="M155.966,353.495c-0.135,0.317-0.708,0.379-1.28,0.137c-0.571-0.242-0.926-0.696-0.792-1.014
			c0.135-0.317,0.708-0.379,1.28-0.137C155.746,352.724,156.1,353.178,155.966,353.495z"/>
		<g style="opacity:0.5;">
			<path style="fill:#A97C50;" d="M201.699,337.328c-2.777-4.325-6.018-8.977-7.876-13.916c-0.044-0.065-0.082-0.133-0.127-0.197
				c-0.304-0.441-0.709-0.883-0.884-1.396c-0.058-0.165-0.102-0.331-0.151-0.499c-0.013-0.05-0.032-0.098-0.048-0.148
				c-0.415,0.342-1.057,0.578-1.727,0.725c1.604,0.816,2.929,2.469,1.958,3.996c0.043-1.027-0.36-2.105-1.17-2.678
				c-1.129-0.799-3.025-0.978-4.366-0.865c-0.214,0.018-0.41,0.08-0.599,0.16c-0.435,0.115-0.734,0.369-0.964,0.715
				c-0.234,0.258-0.439,0.55-0.618,0.846c-0.054-0.264-0.148-1.099-0.015-1.635c0.145-0.582,0.639-0.887,1.154-1.086
				c0.041-0.017,0.086-0.024,0.128-0.039c-0.658-0.358-1.275-0.822-1.753-1.364c-0.014-0.035-0.027-0.071-0.043-0.106
				c-0.031-0.076-0.113-0.156-0.208-0.213c-0.034-0.047-0.076-0.09-0.107-0.137c-0.007,0.026-0.015,0.053-0.021,0.08
				c-0.133-0.037-0.26-0.008-0.296,0.168c-0.133,0.676-0.233,1.355-0.328,2.037c-0.556,1.927-1.107,3.852-1.447,5.87
				c-0.372,2.207-0.699,4.431-0.88,6.664c0.426-1.766,2.252-8.805,4.015-7.483c1.006-3.855,5.783-3.772,5.951-0.587
				c0.168,2.18,2.094-1.025,4.358,2.767c3.605,6.035,9.473,15.004-0.419,17.183c-7.348,1.618-12.93-2.306-14.01-7.363
				c0.09,1.693,0.363,3.375,0.953,4.961c2.875,2.976,7.248,4.085,11.324,4.319c2.501,0.143,5.106-0.6,7.131-2.074
				c0.869-0.633,1.602-1.494,2.288-2.309c0.514-0.613,0.773-1.256,0.866-1.926C203.487,340.191,202.561,338.668,201.699,337.328z"/>
		</g>
		<path style="fill:#A97C50;" d="M195.883,331.772c0,0,5.844,9.525-1.553,12.142c-2.841,0.825,0.219,1.834,3.228-0.137
			C202.373,340.621,196.039,329.094,195.883,331.772z"/>
		<path style="fill:#A97C50;" d="M192.489,344.828c0,0.303-0.344,0.549-0.768,0.549c-0.424,0-0.768-0.246-0.768-0.549
			c0-0.303,0.344-0.549,0.768-0.549C192.145,344.279,192.489,344.525,192.489,344.828z"/>
		<g>
			<path style="fill:#FED1B4;" d="M38.459,145.253c0.336-0.464,0.724-0.802,1.148-1.047c0.523,1.809,2.156,4.071,5.896,6.808
				c11.351,8.309,17.354,18.986,20.828,18.549c1.949-0.244,2.683-1.672,2.029-4.255c0.909,1.513,1.799,3.04,2.704,4.552
				c0.162,0.654,0.393,1.313,0.755,1.986c0.904,1.697,2.547,3.194,4.015,4.395c0.021,0.014,0.042,0.02,0.063,0.032
				c0.255,0.394,0.563,0.763,0.833,1.11c-3.425-2.269-7.78-3.925-11.494-5.189c-1.737-0.594-3.87-1.101-5.878-1.02
				c-3.81-5.21-8.396-9.506-12.99-14.009c-2.271-2.23-4.68-4.395-7.126-6.43C37.415,149.217,37.031,147.241,38.459,145.253z"/>
		</g>
		<g>
			<path style="fill:#FED1B4;" d="M55.022,177.389c-0.082-1.118-0.138-2.108,0.239-2.946c0.471,1.26,1.826,2.296,5.05,2.23
				c7.573-0.154,13.896,2.74,19.828,7.034c0.057,0.552,0.038,1.126-0.039,1.727c-3.118-3.123-7.94-4.41-12.106-5.193
				c-3.627-0.682-9.137-1.236-12.394,1.209C55.048,180.385,55.095,178.385,55.022,177.389z"/>
		</g>
		<g>
			<path style="fill:#FED1B4;" d="M54.228,185.62c0.613,1.79,1.986,3.076,4.999,1.494c6.011-3.16,19.429-0.561,23.052,7.575
				c-0.031,0.471-0.113,0.917-0.289,1.299c-1.203-2.116-3.127-3.749-5.555-4.602c-5.133-1.798-11.368,0.653-16.416,1.645
				c-1.937,0.38-3.821,0.842-4.9,1.964c-0.161-0.442-0.314-0.898-0.342-1.002c-0.3-1.141-0.519-2.298-0.685-3.465
				C53.86,188.898,53.799,187.189,54.228,185.62z"/>
		</g>
		<g>
			<path style="fill:#FED1B4;" d="M66.136,200.5c-2-2.431-1.114-3.247,5.525,0.15c5.07,2.597,9.541,2.461,10.689,0.325
				c0.024,0.08,0.052,0.157,0.072,0.236c-0.029,0.036-0.05,0.079-0.049,0.123c0.057,1.891,0.414,4.609-3.021,4.428
				c-1.446-0.078-2.993-0.481-4.372-0.87c-0.957-0.268-1.902-0.644-2.816-1.095c-0.038-0.158-0.189-0.229-0.35-0.184
				c-1.435-0.749-2.784-1.687-3.955-2.726c-0.058-0.055-0.15,0.05-0.108,0.108c0.861,1.219,1.801,2.199,2.823,3.015
				c-0.463,0.071-0.949,0.111-1.254,0.182c-0.979,0.229-2.606,0.627-3.451-0.087c-0.04-0.033-0.111,0.038-0.078,0.078
				c0.66,0.763,2.442,0.898,3.371,0.741c0.614-0.104,1.661,0.054,2.353-0.231c1.936,1.268,4.165,1.979,6.802,2.268
				c1.306,0.146,2.287-0.041,3.002-0.467c2.274-0.928,2.212-4.348,1.999-6.341c-0.129-1.2-0.463-2.321-0.935-3.357
				c0.723-0.675,1.063-1.603,1.159-2.634c1.165,2.185,2.593,4.208,4.212,5.783c0.372,0.362,0.868-0.314,0.677-0.681
				c-1.825-3.514-3.825-6.966-5.395-10.604c-0.858-1.993-1.323-4.131-1.523-6.282c-0.044-0.466-0.327-4.034,0.298-4.32
				c0.026-0.012,0.028-0.065-0.007-0.056c-0.553,0.16-0.579,1.151-0.663,1.602c-0.113,0.609-0.222,1.23-0.315,1.855
				c-0.349-0.642-0.797-1.247-1.303-1.795c0.002-0.038,0.009-0.076-0.002-0.11c-0.317-0.852-1.096-1.736-1.749-2.363
				c-0.401-0.384-0.938-0.721-1.398-1.112c0.071-0.131,0.097-0.29,0.035-0.417c-0.659-1.351-1.633-2.415-2.568-3.58
				c-0.836-1.039-1.284-2.16-1.534-3.347c2.176,4.281,5.106,7.348,6.802,8.112c2.692,1.212,2.861-3.045,3.195,0.725
				c0.795,14.156,8.414,24.208,11.241,19.756c2.827-4.448,0.074-13.982-5.854-19.587c-5.929-5.604-8.9-5.655-9.204-14.79
				c-0.144-4.376-1.334-7.247-2.53-9.066c0.106,0.005,0.214,0.019,0.326,0.05c1.776,0.466,2.649,3.418,3.147,4.887
				c1.112,3.288,1.948,6.645,3.573,9.736c1.638,3.111,4.763,4.91,6.77,7.735c2.6,3.661,5.107,6.901,6.379,11.294
				c1.201,4.153,1.294,8.568,0.772,12.835c-0.26,2.126-0.543,4.075-1.712,5.936c-0.811,1.295-1.987,2.289-2.722,3.636
				c-0.076,0.138,0.025,0.349,0.202,0.301c0.055-0.017,0.11-0.032,0.165-0.047c0.133-0.036,0.284-0.305,0.081-0.362
				c0.569,0.163,1.373-0.374,2.115-1.064c0.556,1.591,2.429,3.05,1.407,4.725c-0.823-1.437-2.008-2.811-3.239-1.855
				c-2.251,1.74-5.55,4.067-7.026,4.813c-0.906,0.459-0.756,2.56,0.441,3.813c-0.455,0.054-0.928-0.008-1.424-0.242
				c-0.266-0.126-0.522-0.259-0.783-0.39c-0.724-0.804-1.611-1.447-2.439-2.146c1.466-0.611,2.817-1.493,3.927-2.676
				c0.053-0.057-0.018-0.133-0.079-0.088c-2.713,1.963-6.403,2.6-9.686,2.167c-3.669-0.484-7-3.479-9.842-5.634
				c-3.016-2.29-5.975-4.814-8.321-7.802c-0.459-0.585-0.86-1.201-1.211-1.841C62.406,202.962,67.882,202.622,66.136,200.5z"/>
		</g>
		<path style="fill:#FED1B4;" d="M80.041,208.911c0,0-4.326-0.725-7.766-2.268c-3.441-1.541-7.153,4.854,1.5,7.434
			C82.428,216.657,87.232,208.852,80.041,208.911z"/>
		<path style="fill:#E1B39B;" d="M43.644,145.592c0,0,13.85,7.499,19.161,16.424c3.138,5.534,5.26,2.999-1.144-4.914
			C55.257,149.189,39.476,142.978,43.644,145.592z"/>
		<path style="fill:#E1B39B;" d="M59.382,173.608c0,0,9.98,1.709,16.662,6.273c4.037,2.979,3.195-0.926-4.513-3.966
			C63.824,172.874,57.642,172.258,59.382,173.608z"/>
		<path style="fill:#E1B39B;" d="M57.696,183.763c0,0,11.028-2.438,20.866,3.65c2.232,1.113-1.826-3.335-9.705-4.961
			C60.978,180.829,54.026,183.702,57.696,183.763z"/>
		<path style="fill:#E1B39B;" d="M74.499,156.537c0,0-2.315,5.519,0.383,13.095c1.171,3.018-2.262-0.35-2.345-6.038
			C72.453,157.903,74.478,155.117,74.499,156.537z"/>
		<path style="fill:#E1B39B;" d="M80.11,198.581c0,0-3.044-5.314-13.293-3.708c-8.22,1.352-10.636,1.022-6.35-0.15
			c4.284-1.173,12.642-2.7,16.228-0.619C80.283,196.186,81.788,199.321,80.11,198.581z"/>
		<g>
			<path style="fill:none;" d="M244.981,277.896c0.067,0.05,0.129,0.103,0.194,0.153c-0.028-0.074-0.03-0.134-0.015-0.186
				c-0.075-0.018-0.151-0.035-0.226-0.057C244.949,277.837,244.95,277.873,244.981,277.896z"/>
			<path style="fill:none;" d="M251.34,285.049c-0.227-0.477-0.585-1.043-1.12-1.696c-0.378-0.462-0.772-0.9-1.167-1.318
				c0.429,0.545,0.851,1.102,1.278,1.667C250.67,284.147,251.007,284.597,251.34,285.049z"/>
			<path style="fill:#FED1B4;" d="M249.053,282.034c-1.151-1.465-2.359-2.834-3.877-3.985
				C245.426,278.686,247.239,280.112,249.053,282.034z"/>
			<path style="fill:#FED1B4;" d="M242.377,271.588c0.383-1.913,0.669-3.442,3.634-2.486c2.965,0.956,4.209,2.678,3.156,2.104
				c-1.053-0.573-2.391-0.766-0.382,1.626c2.009,2.392,1.435,2.869,0,1.625c-1.435-1.244-2.392-0.573-1.148,0.957
				c1.243,1.53,3.348,3.729,2.392,4.686c-0.956,0.957-3.635-2.678-4.687-2.392c-0.108,0.029-0.16,0.084-0.181,0.153
				c0.214,0.052,0.428,0.102,0.612,0.198c0.734,0.382,1.322,1.005,1.992,1.493c0.344,0.339,0.711,0.651,1.081,0.937
				c1.284,1.541,2.4,3.287,3.468,4.748c0.008,0.012,0.017,0.023,0.024,0.035c-0.184-1.23-0.424-2.43-0.755-3.615
				c-0.167-1.409-0.211-2.525-1.102-3.686c-0.347-0.452-0.815-0.824-1.25-1.216c-0.259-0.371-0.516-0.742-0.759-1.12
				c-0.283-0.521-0.528-1.071-0.75-1.623c1.185,1.597,2.905,2.665,3.92,4.343c-0.015-0.518-0.06-1.031-0.282-1.535
				c-0.355-0.803-0.569-1.654-0.925-2.455c-0.419-0.944-0.991-1.602-1.635-2.383c-0.229-0.278-0.391-0.454-0.425-0.8
				c-0.003-0.025,0.045-0.059,0.059-0.027c0.301,0.666,1.364,0.995,1.852,1.544c0.594,0.67,1.031,1.373,1.378,2.199
				c0.301,0.715,0.576,1.354,0.752,1.986c0.078-2.404-2.214-5.839-3.791-7.081c-1.72-1.353-3.785-1.358-5.604-2.296
				c-0.259,0.466-0.681,1.895-0.713,1.984c-0.37,1.019-0.777,2.023-1.483,2.858c-1.327,1.573-3.254,2.228-4.976,3.231
				c-0.008,0.01-0.012,0.021-0.02,0.029c0.063,0.353,0.088,0.722,0.094,1.097C237.857,274.825,242.046,273.242,242.377,271.588z"/>
			<path style="fill:#FED1B4;" d="M252.564,286.807c-0.387-0.601-0.802-1.183-1.225-1.758c0.867,1.821-0.312,2.247-1.981,0.503
				c-2.105-2.2-2.678-4.591-5.355-5.355c-2.678-0.765-4.878-1.722-8.13,3.442c-1.062,1.686-1.919,2.309-2.593,2.387
				c0.009,0.127,0.031,0.255,0.089,0.387c0.262,0.594,0.792,0.513,1.254,0.275c0.006,0.003,0.011,0.006,0.018,0.009
				c0.047-0.029,0.086-0.063,0.132-0.094c0.09-0.054,0.178-0.111,0.256-0.169c0.037-0.028,0.071-0.06,0.107-0.09
				c1.667-1.25,2.466-3.051,3.724-4.683c0.231-0.15,0.452-0.317,0.646-0.44c0.668-0.424,1.323-0.591,2-0.604
				c-0.016,0.016-0.03,0.035-0.054,0.044c1.724,0.118,3.479,0.841,4.689,2.078c1.385,1.415,1.918,3.274,3.083,4.836
				c0.509,0.681,1.146,1.565,2.016,1.814C253.154,288.908,253.596,288.049,252.564,286.807z"/>
		</g>
	</g>
</g>
</svg>
